<svg width="120" height="60" viewBox="0 0 120 60" background-color="blue" fill="none" xmlns="http://www.w3.org/2000/svg">
<path d="M59.9949 44.9961L44.9963 59.9951H54.9954L59.9949 54.9954L64.9947 59.9951H74.9938L59.9949 44.9961ZM4.99951 29.9973L34.997 0H24.9979L0 24.9979V34.9969L24.9979 59.9951H34.997L4.99951 29.9973ZM0 44.9961V54.9954L4.99951 59.9951H14.9988L0 44.9961ZM104.991 59.9951H114.991L119.99 54.9954V44.9961L104.991 59.9951ZM89.9924 24.9979L94.9921 29.9973L89.9924 34.9969L84.9929 29.9973L89.9924 24.9979ZM104.991 29.9973L79.9935 4.99939L64.9947 19.9982L69.9942 24.9979L79.9935 14.9986L84.9929 19.9982L74.9938 29.9973L84.9929 39.9967L79.9935 44.9961L69.9942 34.9969L64.9947 39.9967L79.9935 54.9954L104.991 29.9973ZM29.9974 34.9969L24.9979 29.9973L29.9974 24.9979L34.997 29.9973L29.9974 34.9969ZM54.9954 39.9967L49.9959 34.9969L39.9968 44.9961L34.997 39.9967L44.9963 29.9973L34.997 19.9982L39.9968 14.9986L49.9959 24.9979L54.9954 19.9982L39.9968 4.99939L14.9988 29.9973L39.9968 54.9954L54.9954 39.9967ZM14.9988 0H4.99951L0 4.99939V14.9986L14.9988 0ZM114.991 0H104.991L119.99 14.9986V4.99939L114.991 0ZM94.9921 0H84.9929L114.991 29.9973L84.9929 59.9951H94.9921L119.99 34.9969V24.9979L94.9921 0ZM59.9949 14.9986L74.9938 0H64.9947L59.9949 4.99939L54.9954 0H44.9963L59.9949 14.9986ZM54.9954 29.9973L59.9949 34.9969L64.9947 29.9973L59.9949 24.9979L54.9954 29.9973Z" fill="#F4F4F4"/>
</svg>
