<svg width="245" height="87" viewBox="0 0 245 87" fill="none" xmlns="http://www.w3.org/2000/svg">
<path d="M48.6754 84.3896L51.0309 77.0859H52.692L49.2818 86.5957H48.0426L44.5973 77.0859H46.2584L48.6754 84.3896ZM57.823 86.5957H56.1971V77.0859H57.823V86.5957ZM56.0652 74.5635C56.0652 74.2998 56.1443 74.0771 56.3025 73.8955C56.4666 73.7139 56.7068 73.623 57.0232 73.623C57.3397 73.623 57.5799 73.7139 57.7439 73.8955C57.908 74.0771 57.99 74.2998 57.99 74.5635C57.99 74.8271 57.908 75.0469 57.7439 75.2227C57.5799 75.3984 57.3397 75.4863 57.0232 75.4863C56.7068 75.4863 56.4666 75.3984 56.3025 75.2227C56.1443 75.0469 56.0652 74.8271 56.0652 74.5635ZM67.7705 84.0732C67.7705 83.6338 67.6035 83.2939 67.2695 83.0537C66.9414 82.8076 66.3643 82.5967 65.5381 82.4209C64.7178 82.2451 64.0645 82.0342 63.5781 81.7881C63.0977 81.542 62.7402 81.249 62.5059 80.9092C62.2773 80.5693 62.1631 80.165 62.1631 79.6963C62.1631 78.917 62.4912 78.2578 63.1475 77.7188C63.8096 77.1797 64.6533 76.9102 65.6787 76.9102C66.7568 76.9102 67.6299 77.1885 68.2979 77.7451C68.9717 78.3018 69.3086 79.0137 69.3086 79.8809H67.6738C67.6738 79.4355 67.4834 79.0518 67.1025 78.7295C66.7275 78.4072 66.2529 78.2461 65.6787 78.2461C65.0869 78.2461 64.624 78.375 64.29 78.6328C63.9561 78.8906 63.7891 79.2275 63.7891 79.6436C63.7891 80.0361 63.9443 80.332 64.2549 80.5312C64.5654 80.7305 65.125 80.9209 65.9336 81.1025C66.748 81.2842 67.4072 81.501 67.9111 81.7529C68.415 82.0049 68.7871 82.3096 69.0273 82.667C69.2734 83.0186 69.3965 83.4492 69.3965 83.959C69.3965 84.8086 69.0566 85.4912 68.377 86.0068C67.6973 86.5166 66.8154 86.7715 65.7314 86.7715C64.9697 86.7715 64.2959 86.6367 63.71 86.3672C63.124 86.0977 62.6641 85.7227 62.3301 85.2422C62.002 84.7559 61.8379 84.2314 61.8379 83.6689H63.4639C63.4932 84.2139 63.71 84.6475 64.1143 84.9697C64.5244 85.2861 65.0635 85.4443 65.7314 85.4443C66.3467 85.4443 66.8389 85.3213 67.208 85.0752C67.583 84.8232 67.7705 84.4893 67.7705 84.0732ZM75.0813 86.5957H73.4553V77.0859H75.0813V86.5957ZM73.3234 74.5635C73.3234 74.2998 73.4025 74.0771 73.5607 73.8955C73.7248 73.7139 73.965 73.623 74.2814 73.623C74.5979 73.623 74.8381 73.7139 75.0021 73.8955C75.1662 74.0771 75.2482 74.2998 75.2482 74.5635C75.2482 74.8271 75.1662 75.0469 75.0021 75.2227C74.8381 75.3984 74.5979 75.4863 74.2814 75.4863C73.965 75.4863 73.7248 75.3984 73.5607 75.2227C73.4025 75.0469 73.3234 74.8271 73.3234 74.5635ZM81.6977 74.7832V77.0859H83.473V78.3428H81.6977V84.2402C81.6977 84.6211 81.7768 84.9082 81.935 85.1016C82.0932 85.2891 82.3627 85.3828 82.7436 85.3828C82.9311 85.3828 83.1889 85.3477 83.517 85.2773V86.5957C83.0893 86.7129 82.6732 86.7715 82.2689 86.7715C81.5424 86.7715 80.9945 86.5518 80.6254 86.1123C80.2563 85.6729 80.0717 85.0488 80.0717 84.2402V78.3428H78.3402V77.0859H80.0717V74.7832H81.6977ZM88.7096 77.0859L88.7535 78.1406C89.4508 77.3203 90.3912 76.9102 91.5748 76.9102C92.9049 76.9102 93.8102 77.4199 94.2906 78.4395C94.607 77.9824 95.0172 77.6133 95.5211 77.332C96.0309 77.0508 96.6314 76.9102 97.3229 76.9102C99.4088 76.9102 100.469 78.0146 100.504 80.2236V86.5957H98.8785V80.3203C98.8785 79.6406 98.7232 79.1338 98.4127 78.7998C98.1021 78.46 97.5807 78.29 96.8482 78.29C96.2447 78.29 95.7438 78.4717 95.3453 78.835C94.9469 79.1924 94.7154 79.6758 94.651 80.2852V86.5957H93.0162V80.3643C93.0162 78.9814 92.3395 78.29 90.9859 78.29C89.9195 78.29 89.19 78.7441 88.7975 79.6523V86.5957H87.1715V77.0859H88.7096ZM108.712 86.7715C107.423 86.7715 106.374 86.3496 105.565 85.5059C104.757 84.6562 104.352 83.5225 104.352 82.1045V81.8057C104.352 80.8623 104.531 80.0215 104.888 79.2832C105.252 78.5391 105.756 77.959 106.4 77.543C107.051 77.1211 107.754 76.9102 108.51 76.9102C109.746 76.9102 110.707 77.3174 111.392 78.1318C112.078 78.9463 112.421 80.1123 112.421 81.6299V82.3066H105.978C106.002 83.2441 106.274 84.0029 106.796 84.583C107.323 85.1572 107.991 85.4443 108.8 85.4443C109.374 85.4443 109.86 85.3271 110.259 85.0928C110.657 84.8584 111.006 84.5479 111.304 84.1611L112.298 84.9346C111.501 86.1592 110.305 86.7715 108.712 86.7715ZM108.51 78.2461C107.853 78.2461 107.303 78.4863 106.857 78.9668C106.412 79.4414 106.137 80.1094 106.031 80.9707H110.795V80.8477C110.748 80.0215 110.525 79.3828 110.127 78.9316C109.728 78.4746 109.189 78.2461 108.51 78.2461ZM119.301 80.5576L121.41 77.0859H123.309L120.197 81.7881L123.405 86.5957H121.524L119.327 83.0361L117.13 86.5957H115.24L118.448 81.7881L115.337 77.0859H117.218L119.301 80.5576ZM128.607 86.5957H126.981V77.0859H128.607V86.5957ZM126.849 74.5635C126.849 74.2998 126.928 74.0771 127.086 73.8955C127.25 73.7139 127.49 73.623 127.807 73.623C128.123 73.623 128.363 73.7139 128.528 73.8955C128.692 74.0771 128.774 74.2998 128.774 74.5635C128.774 74.8271 128.692 75.0469 128.528 75.2227C128.363 75.3984 128.123 75.4863 127.807 75.4863C127.49 75.4863 127.25 75.3984 127.086 75.2227C126.928 75.0469 126.849 74.8271 126.849 74.5635ZM136.831 85.4443C137.412 85.4443 137.918 85.2686 138.352 84.917C138.786 84.5654 139.026 84.126 139.073 83.5986H140.611C140.581 84.1436 140.394 84.6621 140.048 85.1543C139.703 85.6465 139.24 86.0391 138.66 86.332C138.085 86.625 137.476 86.7715 136.831 86.7715C135.537 86.7715 134.505 86.3408 133.738 85.4795C132.976 84.6123 132.595 83.4287 132.595 81.9287V81.6562C132.595 80.7305 132.765 79.9072 133.105 79.1865C133.445 78.4658 133.931 77.9062 134.564 77.5078C135.203 77.1094 135.955 76.9102 136.823 76.9102C137.889 76.9102 138.774 77.2295 139.477 77.8682C140.186 78.5068 140.564 79.3359 140.611 80.3555H139.073C139.026 79.7402 138.791 79.2363 138.37 78.8438C137.954 78.4453 137.438 78.2461 136.823 78.2461C135.996 78.2461 135.355 78.5449 134.898 79.1426C134.447 79.7344 134.221 80.5928 134.221 81.7178V82.0254C134.221 83.1211 134.447 83.9648 134.898 84.5566C135.349 85.1484 135.994 85.4443 136.831 85.4443ZM143.808 81.7529C143.808 80.8213 143.99 79.9834 144.353 79.2393C144.722 78.4951 145.232 77.9209 145.882 77.5166C146.539 77.1123 147.286 76.9102 148.124 76.9102C149.419 76.9102 150.464 77.3584 151.261 78.2549C152.064 79.1514 152.465 80.3438 152.465 81.832V81.9463C152.465 82.8721 152.287 83.7041 151.929 84.4424C151.578 85.1748 151.071 85.7461 150.409 86.1562C149.753 86.5664 148.997 86.7715 148.141 86.7715C146.852 86.7715 145.806 86.3232 145.004 85.4268C144.207 84.5303 143.808 83.3438 143.808 81.8672V81.7529ZM145.443 81.9463C145.443 83.001 145.686 83.8477 146.172 84.4863C146.665 85.125 147.321 85.4443 148.141 85.4443C148.967 85.4443 149.624 85.1221 150.11 84.4775C150.596 83.8271 150.839 82.9189 150.839 81.7529C150.839 80.71 150.59 79.8662 150.092 79.2217C149.6 78.5713 148.944 78.2461 148.124 78.2461C147.321 78.2461 146.673 78.5654 146.181 79.2041C145.689 79.8428 145.443 80.7568 145.443 81.9463ZM156.34 85.7432C156.34 85.4619 156.422 85.2275 156.586 85.04C156.756 84.8525 157.008 84.7588 157.342 84.7588C157.676 84.7588 157.928 84.8525 158.097 85.04C158.273 85.2275 158.361 85.4619 158.361 85.7432C158.361 86.0127 158.273 86.2383 158.097 86.4199C157.928 86.6016 157.676 86.6924 157.342 86.6924C157.008 86.6924 156.756 86.6016 156.586 86.4199C156.422 86.2383 156.34 86.0127 156.34 85.7432ZM166.665 85.4443C167.245 85.4443 167.752 85.2686 168.186 84.917C168.619 84.5654 168.859 84.126 168.906 83.5986H170.444C170.415 84.1436 170.228 84.6621 169.882 85.1543C169.536 85.6465 169.073 86.0391 168.493 86.332C167.919 86.625 167.31 86.7715 166.665 86.7715C165.37 86.7715 164.339 86.3408 163.571 85.4795C162.81 84.6123 162.429 83.4287 162.429 81.9287V81.6562C162.429 80.7305 162.599 79.9072 162.938 79.1865C163.278 78.4658 163.765 77.9062 164.397 77.5078C165.036 77.1094 165.789 76.9102 166.656 76.9102C167.723 76.9102 168.607 77.2295 169.311 77.8682C170.02 78.5068 170.397 79.3359 170.444 80.3555H168.906C168.859 79.7402 168.625 79.2363 168.203 78.8438C167.787 78.4453 167.271 78.2461 166.656 78.2461C165.83 78.2461 165.188 78.5449 164.731 79.1426C164.28 79.7344 164.055 80.5928 164.055 81.7178V82.0254C164.055 83.1211 164.28 83.9648 164.731 84.5566C165.183 85.1484 165.827 85.4443 166.665 85.4443ZM173.642 81.7529C173.642 80.8213 173.823 79.9834 174.187 79.2393C174.556 78.4951 175.066 77.9209 175.716 77.5166C176.372 77.1123 177.119 76.9102 177.957 76.9102C179.252 76.9102 180.298 77.3584 181.095 78.2549C181.898 79.1514 182.299 80.3438 182.299 81.832V81.9463C182.299 82.8721 182.12 83.7041 181.763 84.4424C181.411 85.1748 180.904 85.7461 180.242 86.1562C179.586 86.5664 178.83 86.7715 177.975 86.7715C176.686 86.7715 175.64 86.3232 174.837 85.4268C174.04 84.5303 173.642 83.3438 173.642 81.8672V81.7529ZM175.277 81.9463C175.277 83.001 175.52 83.8477 176.006 84.4863C176.498 85.125 177.154 85.4443 177.975 85.4443C178.801 85.4443 179.457 85.1221 179.944 84.4775C180.43 83.8271 180.673 82.9189 180.673 81.7529C180.673 80.71 180.424 79.8662 179.926 79.2217C179.434 78.5713 178.778 78.2461 177.957 78.2461C177.154 78.2461 176.507 78.5654 176.015 79.2041C175.523 79.8428 175.277 80.7568 175.277 81.9463ZM187.667 77.0859L187.711 78.1406C188.409 77.3203 189.349 76.9102 190.533 76.9102C191.863 76.9102 192.768 77.4199 193.248 78.4395C193.565 77.9824 193.975 77.6133 194.479 77.332C194.989 77.0508 195.589 76.9102 196.281 76.9102C198.367 76.9102 199.427 78.0146 199.462 80.2236V86.5957H197.836V80.3203C197.836 79.6406 197.681 79.1338 197.371 78.7998C197.06 78.46 196.538 78.29 195.806 78.29C195.203 78.29 194.702 78.4717 194.303 78.835C193.905 79.1924 193.673 79.6758 193.609 80.2852V86.5957H191.974V80.3643C191.974 78.9814 191.297 78.29 189.944 78.29C188.877 78.29 188.148 78.7441 187.755 79.6523V86.5957H186.129V77.0859H187.667Z" fill="white"/>
<path d="M214.376 47.5563C213.442 47.8824 212.434 48.0684 211.391 48.0684C208.87 48.0684 206.593 47.0418 204.949 45.3774C204.793 45.2307 204.654 45.0604 204.512 44.9016C203.463 43.6799 202.735 42.1841 202.446 40.5361C202.36 40.0173 202.299 39.4841 202.299 38.9466C202.299 38.4816 202.346 38.0341 202.413 37.5903C202.766 35.1723 204.072 33.069 205.93 31.6619C207.452 30.5091 209.337 29.8194 211.391 29.8194C212.086 29.8194 212.769 29.9046 213.425 30.0592C215.584 30.5544 217.446 31.8207 218.719 33.5503C219.824 35.0642 220.485 36.9236 220.485 38.9466C220.485 41.576 219.364 43.9462 217.586 45.6081C216.671 46.4657 215.584 47.1348 214.376 47.5563ZM232.57 37.0595C232.471 35.9652 232.282 34.8927 232.014 33.8498C231.443 31.6692 230.512 29.6238 229.293 27.7801C227.704 25.3706 225.608 23.3017 223.155 21.7195C219.795 19.5582 215.784 18.2979 211.456 18.2979C202.458 18.2979 194.769 23.7582 191.691 31.4644C191.52 31.9016 191.357 32.3425 191.213 32.7906C190.678 34.4628 190.355 36.2327 190.281 38.0631C190.262 38.353 190.254 38.6471 190.254 38.9466C190.254 39.4098 190.281 39.873 190.308 40.3313C190.343 40.8918 190.406 41.4479 190.488 41.992C190.756 43.7602 191.25 45.4511 191.953 47.0436C192.982 49.3873 194.438 51.5045 196.235 53.3059C197.654 54.7287 199.276 55.9546 201.06 56.9329C204.135 58.6256 207.68 59.5906 211.456 59.5906C217.259 59.5906 222.515 57.3175 226.345 53.6405C226.405 53.5825 226.464 53.5221 226.526 53.4641C227.375 52.6314 228.156 51.7213 228.845 50.7496C229.787 49.4446 230.567 48.0321 231.182 46.5254C232.13 44.1769 232.664 41.6219 232.664 38.9466C232.664 38.3059 232.628 37.6785 232.57 37.0595Z" fill="#00ABBF"/>
<path d="M153.303 58.9849V19.6045H144.664V19.6081H140.716L140.735 58.9849H153.303Z" fill="#AC2284"/>
<path d="M189.689 52.8165C188.972 50.0556 188.211 47.0663 188.211 47.0663L187.708 47.2293C184.661 48.2119 180.873 48.6388 178.516 48.2566C176.75 47.9721 175.176 47.4292 173.956 46.5844C173.277 46.2136 171.805 44.6405 171.742 44.5378C170.687 43.0812 170.129 41.2563 170.121 39.0907C170.14 34.0543 173.122 30.7921 178.508 29.9267C180.873 29.5378 184.649 29.9575 187.708 30.9479L188.207 31.1176C188.207 31.1176 190.011 22.1003 190.468 20.163C187.517 18.9347 183.936 18.3574 179.771 18.3574C166.134 18.3689 156.929 26.9755 156.864 39.0273C156.855 39.0992 156.855 39.1258 156.855 39.1258C156.879 41.0208 157.117 42.8379 157.562 44.5378C157.592 44.6405 158.029 46.0862 158.25 46.5693H158.204C159.314 49.4257 160.987 51.8316 163.153 53.8039V53.8117L164.155 54.662C168.102 57.8173 173.473 59.6809 179.793 59.8132C185.834 59.9599 188.635 58.8832 191.042 57.7805C190.781 56.9127 190.254 54.944 189.689 52.8165Z" fill="#85C440"/>
<path d="M59.4148 54.3777L58.7557 51.1922L56.7102 41.3784L52.1822 19.6045H38.2691L32.8337 39.0328L27.4051 19.6045H13.9916L9.24943 41.382L7.10961 51.1922L6.41642 54.3777L5.41467 58.9745V58.9757H18.3838L21.9691 41.3784L22.5296 38.6131L25.5501 48.799L28.5742 58.9757H37.0969L40.1205 48.799L43.1446 38.6131L43.7099 41.3784L47.2873 58.9775H60.3727L59.4148 54.3777Z" fill="#EE2743"/>
<path d="M89.187 33.6011H74.0944C74.7133 30.4126 76.8063 28.4143 79.5225 27.7102C80.2473 27.5218 81.0184 27.4228 81.8181 27.4228C85.3248 27.4228 88.54 29.8661 89.187 33.6011ZM73.8875 41.6177H101.615V40.169C101.615 28.3038 95.8006 20.3543 85.5628 18.7298C84.6864 18.5903 83.7778 18.4955 82.8308 18.4496C82.3993 18.4285 81.9587 18.417 81.5138 18.417C81.3069 18.417 81.1085 18.4224 80.9064 18.4261C79.5273 18.4647 78.1902 18.5951 76.9085 18.8379C67.395 20.6188 60.8635 28.0254 60.8635 39.3314C60.8635 45.1595 62.6248 49.8324 65.5868 53.2631C68.6225 56.7735 72.9216 58.9849 77.9133 59.8026C78.9102 59.9662 79.9314 60.0761 80.9758 60.1299H83.7765C91.6737 59.7029 99.1497 55.4739 101.119 46.7351H88.5948L88.5905 46.7447C87.1756 49.2992 85.2086 50.2986 82.4729 50.3204C82.437 50.3204 82.4102 50.3234 82.3786 50.3234C78.7861 50.3234 76.2062 48.9483 74.8935 46.354C74.6634 45.9174 74.4796 45.4433 74.3317 44.9331C74.1218 44.2253 73.9806 43.4632 73.9185 42.6244C73.899 42.2971 73.8875 41.9656 73.8875 41.6177Z" fill="#ED1D86"/>
<path d="M80.9257 17.7388L82.009 17.1663L84.3119 15.944L87.406 14.3068L94.246 10.6804L87.2776 2.0791L75.766 12.2107L79.4133 16.1167L80.9257 17.7388Z" fill="#ED1D86"/>
<path d="M130.17 45.9087L126.188 39.345L130.252 32.5935L138.084 19.6045L137.344 19.6087L123.93 19.6141L122.091 23.0497L118.304 30.123L114.525 23.0757L112.666 19.6141L98.5117 19.6208L106.349 32.5899L110.426 39.345L106.454 45.9087L98.5275 59.0059L112.682 59.0041L114.53 55.5721L118.296 48.5441L122.091 55.5583L123.946 58.9974H138.103L130.17 45.9087Z" fill="#EFB627"/>
<path d="M205.93 31.6856C207.451 30.5328 209.337 29.8431 211.391 29.8431C212.086 29.8431 212.769 29.9283 213.425 30.0829C213.974 29.9416 214.527 29.8003 215.087 29.6475C220.119 28.302 224.808 27.8105 229.293 27.8038C227.703 25.3943 225.607 23.3254 223.154 21.7432C218.626 22.0493 214.084 23.4914 208.65 26.1908C201.933 29.5237 196.153 30.9507 191.69 31.4881C191.52 31.9254 191.356 32.3662 191.212 32.8143C194.948 32.9647 199.835 32.7467 205.93 31.6856Z" fill="#13828F"/>
<path d="M218.719 33.5447C219.824 35.0586 220.485 36.9179 220.485 38.9409C223.813 38.4947 227.363 37.9475 231.152 37.2778C231.63 37.1969 232.099 37.1275 232.571 37.0538C232.471 35.9596 232.282 34.8871 232.014 33.8442C226.312 32.5495 222.349 32.7542 218.719 33.5447Z" fill="#13828F"/>
<path d="M202.446 40.5518C202.36 40.0331 202.299 39.4998 202.299 38.9624C202.299 38.4973 202.346 38.0498 202.413 37.606C200.79 37.8095 199.033 37.9514 197.077 38.0015C194.545 38.0631 192.292 38.0879 190.281 38.0788C190.262 38.3687 190.254 38.6628 190.254 38.9624C190.254 39.4256 190.281 39.8888 190.308 40.3471C193.667 40.6056 197.68 40.7125 202.446 40.5518Z" fill="#13828F"/>
<path d="M226.345 53.6485C226.406 53.5905 226.465 53.5302 226.527 53.4722C224.391 52.8906 222.205 52.2922 219.951 51.6847C208.469 48.5867 203.718 51.1973 196.236 53.314C197.654 54.7367 199.277 55.9626 201.061 56.9409C205.873 56.4192 211.209 55.6728 217.128 54.6304C220.316 54.0694 223.369 53.7723 226.345 53.6485Z" fill="#13828F"/>
<path d="M204.949 45.3873C204.793 45.2406 204.654 45.0703 204.513 44.9115C202.708 44.4145 200.866 43.9102 198.979 43.4042C195.659 42.5086 192.908 42.0962 190.488 42.002C190.756 43.7701 191.251 45.461 191.953 47.0535C193.317 46.8373 194.719 46.6018 196.15 46.35C199.185 45.8161 202.103 45.5268 204.949 45.3873Z" fill="#13828F"/>
<path d="M214.377 47.5742C219.515 48.9064 224.317 50.032 228.846 50.7676C229.788 49.4625 230.568 48.05 231.183 46.5433C226.61 46.3621 222.135 45.9328 217.587 45.626C216.672 46.4835 215.585 47.1526 214.377 47.5742Z" fill="#13828F"/>
<path d="M148.162 50.915L144.664 19.6045H140.716L140.735 58.9812H153.303V50.9096L148.162 50.915Z" fill="#7C2B6E"/>
<path d="M168.371 40.8589C168.121 39.6349 167.482 40.0286 164.669 40.2726C162.323 40.4791 161.871 40.0286 161.871 39.316C161.871 38.6023 162.361 38.0419 164.669 38.3553C167.466 38.7285 168.121 38.993 168.371 37.7725C168.609 36.6246 166.66 36.4785 164.898 36.1802C159.138 35.1977 158.756 38.5636 158.756 39.316C158.756 40.0618 158.628 43.3897 164.898 42.4495C166.667 42.1772 168.609 42.0033 168.371 40.8589Z" fill="#73A345"/>
<path d="M165.578 33.8519C167.904 35.1146 168.652 35.7451 169.381 34.524C170.117 33.3065 169.089 33.0517 166.696 31.8916C164.308 30.7357 163.816 31.2937 163.668 31.5625C163.519 31.8336 163.247 32.5836 165.578 33.8519Z" fill="#73A345"/>
<path d="M168.211 29.8629C169.54 31.0538 170.903 32.4246 171.738 31.5278C172.63 30.5719 171.883 30.3261 169.922 28.3321C168.289 26.6684 168.386 26.0344 168.995 25.5899C169.606 25.1449 170.389 25.1696 171.569 27.1262C172.988 29.5006 173.176 30.1661 174.375 29.5954C175.507 29.0676 174.406 27.4885 173.569 25.9492C170.818 20.9401 167.7 22.7517 167.058 23.2239C166.422 23.6871 163.496 25.6672 168.211 29.8629Z" fill="#73A345"/>
<path d="M177.713 28.3803C179.182 28.1732 178.765 27.2516 178.278 24.7593C177.778 22.2562 177.019 22.2374 176.704 22.29C176.38 22.3425 175.585 22.592 175.951 25.1114C176.309 27.6291 176.247 28.5742 177.713 28.3803Z" fill="#73A345"/>
<path d="M177.934 50.0922C176.497 49.7359 176.497 50.7407 175.923 53.2208C175.346 55.7016 176.041 56.0011 176.36 56.0718C176.677 56.1394 177.514 56.1937 178.211 53.7462C178.916 51.2902 179.365 50.4436 177.934 50.0922Z" fill="#73A345"/>
<path d="M173.927 49.0155C172.806 48.4593 172.727 49.1526 171.228 51.303C169.981 53.0936 169.349 53.1485 168.775 52.7162C168.2 52.285 168.059 51.602 169.696 50.1472C171.683 48.3814 172.279 48.068 171.465 47.1525C170.698 46.2931 169.404 47.5957 168.107 48.6713C163.851 52.1769 166.309 54.4795 166.906 54.9288C167.505 55.3787 170.077 57.4761 173.098 52.4492C173.955 51.0283 174.984 49.5354 173.927 49.0155Z" fill="#73A345"/>
<path d="M169.642 44.4033C169.089 43.1085 168.236 43.7082 165.787 44.7445C163.341 45.7881 163.489 46.4959 163.625 46.7767C163.753 47.0599 164.206 47.7254 166.703 46.8014C169.202 45.8738 170.192 45.7029 169.642 44.4033Z" fill="#73A345"/>
<path d="M181.671 28.1954C182.856 28.1779 182.591 27.5728 182.825 25.164C183.012 23.1645 183.511 22.8511 184.185 22.9616C184.859 23.0794 185.299 23.5824 184.633 25.4768C183.827 27.7721 183.469 28.2806 184.582 28.6984C185.619 29.0807 186.071 27.4653 186.646 26.0203C188.508 21.3317 185.394 20.4676 184.684 20.348C183.978 20.2212 180.865 19.5799 180.737 25.0051C180.701 26.5426 180.553 28.2027 181.671 28.1954Z" fill="#73A345"/>
<path d="M184.747 49.7312C183.648 50.1678 184.135 50.6316 184.879 52.9439C185.494 54.8727 185.156 55.3334 184.481 55.4693C183.816 55.5973 183.203 55.2888 183.071 53.299C182.919 50.884 183.045 50.2856 181.852 50.2964C180.732 50.3037 180.947 51.9656 180.986 53.497C181.123 58.5063 184.345 58.2116 185.051 58.0715C185.752 57.9344 188.902 57.4398 186.875 52.3569C186.301 50.9178 185.775 49.3218 184.747 49.7312Z" fill="#73A345"/>
<path d="M32.8722 48.9866C37.0532 48.989 40.4474 45.6182 40.4474 41.4696L37.0922 41.4714C37.0922 43.7842 35.2061 45.6629 32.8722 45.6629C30.534 45.6629 28.6437 43.7842 28.6437 41.4714L25.2921 41.4678C25.2921 45.6182 28.6826 48.9866 32.8722 48.9866Z" fill="#B22B36"/>
<path d="M47.2875 59.0073H60.373L59.415 54.4075H49.5862L47.5602 44.7374H53.9553L54.6911 48.0123H51.5349L52.1892 51.222H58.7559L56.7104 41.4082H43.7102L47.2875 59.0073Z" fill="#B22B36"/>
<path d="M7.10961 51.2219H13.2863L13.9411 48.0123H10.746L11.486 44.7374H17.8385L15.8119 54.4074H6.41642L5.41467 59.0054H18.3838L21.9691 41.4082L9.24943 41.4118L7.10961 51.2219Z" fill="#B22B36"/>
<path d="M38.0636 48.834V52.1028H34.8058V55.1114H30.8347V52.1028H27.6116V48.834H25.5503L28.5744 59.0107H37.0972L40.1207 48.834H38.0636Z" fill="#B22B36"/>
<path d="M86.2605 13.1662C89.1319 9.81704 84.6697 6.23779 84.6697 6.23779C84.6697 6.23779 85.1766 7.4969 82.9163 9.87924C81.6419 11.2253 81.8056 13.1692 81.8056 13.1692C79.8264 12.1861 79.4515 14.5388 79.4126 16.1011L80.925 17.7231L82.0083 17.1507C83.856 14.8329 84.7676 12.3389 84.904 8.68958C85.4377 11.6692 85.1608 13.9621 84.3112 15.9284L87.4053 14.2913C87.0158 13.5219 86.2605 13.1662 86.2605 13.1662Z" fill="#B42368"/>
<path d="M74.2971 36.3819C74.0476 35.4562 74.008 34.5111 74.145 33.592H74.0944C74.7134 30.4035 76.8063 28.4052 79.5225 27.7011C84.6791 25.724 81.0939 23.2396 81.0939 23.2396C87.3478 22.5506 83.863 20.0958 83.863 20.0958C84.5343 19.6079 85.0918 19.1519 85.5628 18.7207C84.6864 18.5812 83.7778 18.4864 82.8308 18.4405C81.4597 20.2649 79.5767 21.9086 77.4691 23.7879C73.1469 27.6317 68.5179 35.5353 75.1388 40.9183C66.2569 37.2823 67.93 28.8261 75.0925 23.355C77.5111 21.5107 79.4251 19.9599 80.9065 18.417C79.5274 18.4556 78.1903 18.5861 76.9086 18.8288C76.5605 19.7153 76.3548 20.5457 76.3548 20.5457C73.058 17.7098 71.0119 24.9087 71.0119 24.9087C67.6798 21.4334 65.0251 27.0833 64.9795 30.3926C64.9089 35.0081 67.084 39.9901 73.9186 42.6152C73.8991 42.2879 73.8875 41.9564 73.8875 41.6086H79.5426C77.0285 40.3923 74.9167 38.7003 74.2971 36.3819Z" fill="#B42368"/>
<path d="M79.9159 35.3295C79.8769 34.6296 79.9627 34.0783 80.1259 33.626H77.2971C77.0391 34.1858 76.9307 34.9002 77.0433 35.8054C77.4566 38.971 80.247 40.7047 82.8073 41.6426H85.0092C82.9205 40.4843 80.0839 38.3647 79.9159 35.3295Z" fill="#B42368"/>
<path d="M67.8119 43.1095C63.2876 44.0032 63.8494 49.3384 63.8494 49.3384C63.8494 49.3384 64.6673 47.1765 66.7792 46.0896C68.7048 45.0992 71.7988 44.7755 74.8936 46.3432C74.6635 45.9066 74.4797 45.4325 74.3318 44.9223C72.9564 43.7 70.7855 42.5189 67.8119 43.1095Z" fill="#B42368"/>
<path d="M79.7023 53.5745C77.8205 55.2659 75.2985 56.5123 72.0997 55.8903C69.6483 55.4066 68.1676 53.7749 68.9156 51.3389C69.5783 49.2604 71.7881 49.1867 72.4545 49.6692C71.3445 50.4772 71.4102 52.9796 74.1732 53.1252C76.7445 53.1753 77.6684 49.7091 74.9754 48.1879C71.7413 46.3666 66.1069 47.6287 65.5878 53.2731C68.6234 56.7835 72.9226 58.9949 77.9143 59.8125C84.5394 57.7521 87.454 49.078 88.5915 46.7549C87.1765 49.3093 85.2095 50.3087 82.4739 50.3304C81.6042 51.5418 80.7205 52.6572 79.7023 53.5745Z" fill="#B42368"/>
<path d="M116.757 45.3476C113.317 44.3608 111.326 40.8148 112.316 37.4336C113.006 35.0579 114.98 33.4008 117.286 32.9534C116.601 33.6659 116.072 34.5476 115.775 35.5567C114.79 38.9397 116.776 42.4797 120.217 43.4677C121.241 43.76 122.278 43.7932 123.265 43.6029C121.655 45.2781 119.169 46.0354 116.757 45.3476ZM128.899 52.3388L125.801 45.1399L130.17 45.9098L126.188 39.3461L130.252 32.5946L125.801 33.3791L128.899 26.1868L122.461 30.7637L122.091 23.0508L118.304 30.1241L114.525 23.0767L114.152 30.7637L107.713 26.1868L110.819 33.3791L106.349 32.591L110.426 39.3461L106.454 45.9098L110.819 45.1399L107.713 52.3388L114.152 47.7619L114.53 55.5732L118.296 48.5452L122.091 55.5594L122.461 47.7619L128.899 52.3388Z" fill="#EC9130"/>
<path d="M235.993 21.4986H235.624V20.5408C235.705 20.5208 235.849 20.5003 236.055 20.5003C236.548 20.5003 236.774 20.7044 236.774 21.01C236.774 21.3561 236.424 21.4986 235.993 21.4986ZM236.916 21.7438V21.7033C237.308 21.5807 237.616 21.3156 237.616 20.908C237.616 20.5812 237.473 20.3366 237.268 20.1941C237.039 20.0311 236.754 19.929 236.116 19.929C235.562 19.929 235.131 19.9894 234.823 20.0311V23.3755H235.604V22.0493H235.973C236.404 22.0493 236.608 22.2136 236.672 22.5591C236.774 22.9685 236.835 23.2523 236.938 23.3755H237.76C237.699 23.2523 237.616 23.0694 237.515 22.5591C237.411 22.1109 237.246 21.8464 236.916 21.7438ZM236.158 24.3122C234.658 24.3122 233.528 23.1303 233.528 21.6417C233.528 20.1742 234.658 18.9712 236.116 18.9712H236.138C237.616 18.9712 238.724 20.1742 238.724 21.6616C238.724 23.1303 237.616 24.3327 236.158 24.3122ZM236.158 18.2979H236.138C234.205 18.2979 232.664 19.7672 232.664 21.6417C232.664 23.5181 234.205 25.0061 236.138 25.0061C238.025 25.0061 239.519 23.5851 239.586 21.7691V21.5149C239.519 19.7013 238.025 18.2979 236.158 18.2979Z" fill="#00ABBF"/>
</svg>
