<svg xmlns="http://www.w3.org/2000/svg" xmlns:xlink="http://www.w3.org/1999/xlink" width="200" zoomAndPan="magnify" viewBox="0 0 150 74.999997" height="100" preserveAspectRatio="xMidYMid meet" version="1.0"><rect x="-15" width="180" fill="#ffffff" y="-7.5" height="89.999996" fill-opacity="1"/><rect x="-15" width="180" fill="#ffffff" y="-7.5" height="89.999996" fill-opacity="1"/><rect x="-15" width="180" fill="#414242" y="-7.5" height="89.999996" fill-opacity="1"/><path fill="#2c2d2e" d="M 74.992188 56.246094 L 56.246094 74.992188 L 68.746094 74.992188 L 74.992188 68.746094 L 81.242188 74.992188 L 93.742188 74.992188 Z M 6.25 37.496094 L 43.746094 0 L 31.246094 0 L 0 31.246094 L 0 43.746094 L 31.246094 74.992188 L 43.746094 74.992188 Z M 0 56.246094 L 0 68.746094 L 6.25 74.992188 L 18.75 74.992188 Z M 131.238281 74.992188 L 143.738281 74.992188 L 149.988281 68.746094 L 149.988281 56.246094 Z M 112.492188 31.246094 L 118.738281 37.496094 L 112.492188 43.746094 L 106.242188 37.496094 Z M 131.238281 37.496094 L 99.992188 6.25 L 81.242188 24.996094 L 87.492188 31.246094 L 99.992188 18.75 L 106.242188 24.996094 L 93.742188 37.496094 L 106.242188 49.996094 L 99.992188 56.246094 L 87.492188 43.746094 L 81.242188 49.996094 L 99.992188 68.746094 Z M 37.496094 43.746094 L 31.246094 37.496094 L 37.496094 31.246094 L 43.746094 37.496094 Z M 68.746094 49.996094 L 62.496094 43.746094 L 49.996094 56.246094 L 43.746094 49.996094 L 56.246094 37.496094 L 43.746094 24.996094 L 49.996094 18.75 L 62.496094 31.246094 L 68.746094 24.996094 L 49.996094 6.25 L 18.75 37.496094 L 49.996094 68.746094 Z M 18.75 0 L 6.25 0 L 0 6.25 L 0 18.75 Z M 143.738281 0 L 131.238281 0 L 149.988281 18.75 L 149.988281 6.25 Z M 118.738281 0 L 106.242188 0 L 143.738281 37.496094 L 106.242188 74.992188 L 118.738281 74.992188 L 149.988281 43.746094 L 149.988281 31.246094 Z M 74.992188 18.75 L 93.742188 0 L 81.242188 0 L 74.992188 6.25 L 68.746094 0 L 56.246094 0 Z M 68.746094 37.496094 L 74.992188 43.746094 L 81.242188 37.496094 L 74.992188 31.246094 Z M 68.746094 37.496094 " fill-opacity="1" fill-rule="nonzero"/></svg>