<svg width="297" height="23" viewBox="0 0 297 23" fill="none" xmlns="http://www.w3.org/2000/svg">
<rect x="148.5" width="49.5002" height="22.3023" fill="#B90F7E"/>
<rect x="49.502" width="49.5002" height="22.3023" fill="#EA0A7D"/>
<rect width="49.5002" height="22.3023" fill="#F3001E"/>
<rect x="98.998" width="49.5002" height="22.3023" fill="#F9B32A"/>
<rect x="198.004" width="49.5002" height="22.3023" fill="#A1C72D"/>
<rect x="247.498" width="49.5002" height="22.3023" fill="#119FBC"/>
<path d="M199.766 17.9505V22.3022H206.837C204.253 15.7747 218.124 19.0384 218.804 19.1744C219.484 19.3104 221.796 19.8544 222.748 17.9505C223.509 16.4275 220.799 15.2307 219.348 14.8228C204.444 11.4502 200.083 15.5027 199.766 17.9505Z" fill="#76A428"/>
<path d="M213.914 7.88768C211.303 6.47339 211.013 4.66926 211.194 3.94398C211.411 2.31211 214.276 3.08272 215.682 3.672C218.311 4.66926 223.787 6.82696 224.657 7.47971C225.745 8.29565 225.881 9.79153 224.657 11.1514C223.678 12.2393 222.073 11.8767 221.393 11.5594C219.988 10.9248 216.525 9.30197 213.914 7.88768Z" fill="#76A428"/>
<path d="M230.507 4.07968C228.439 4.95002 224.387 1.72253 222.619 0H230.507C231.368 0.997256 232.574 3.20935 230.507 4.07968Z" fill="#76A428"/>
<path d="M148.5 22.3023V0H160.739L164.003 22.3023H148.5Z" fill="#6D0F67"/>
<path d="M148.5 0V22.3023H142.156C139.24 15.4235 144.09 9.67327 146.88 7.65801C134.138 8.73282 130.682 17.8687 130.547 22.3023H124.203L112.055 6.3145L126.498 8.59847L121.908 0H134.732L136.891 2.01527L137.296 0H148.5Z" fill="#F98622"/>
<path d="M257.021 17.6789V22.3026H287.347V16.591C281.69 17.7877 264.773 17.8149 257.021 17.6789Z" fill="#0A758C"/>
<path d="M259.875 2.44781C264.553 2.44781 270.618 0.815937 273.066 0H297V1.76786C291.125 4.92282 268.805 5.6209 258.379 5.57557L259.875 2.44781Z" fill="#0A758C"/>
<path d="M8.15625 17.6786L12.6439 0H26.1069L24.067 5.98354H37.9379L35.2182 17.6786H8.15625Z" fill="#BC0218"/>
<path d="M92.6206 0C75.4966 10.1797 73.8348 19.1097 75.1444 22.3023H79.0729C77.5827 15.8716 85.1693 11.63 87.6078 11.2195C90.0464 10.8091 93.0268 9.44084 93.0268 7.66213C93.0268 6.23916 92.2139 5.24491 91.8075 4.92566C93.5416 4.2689 94.9686 4.19593 95.4653 4.24154V0H92.6206Z" fill="#C00662"/>
<path d="M62.8242 14.4552C62.8242 18.5302 64.1841 21.3845 64.8641 22.3023H70.9836C66.8495 13.0509 80.8655 3.57937 88.3902 0H79.143C75.988 1.43175 74.202 5.55262 73.7034 7.43408C71.7451 5.78206 69.9863 5.55261 69.3517 5.64439C66.6319 5.64439 62.8242 9.36144 62.8242 14.4552Z" fill="#C00662"/>
<path d="M86.762 19.5826C84.4774 19.5826 83.9062 21.3957 83.9062 22.3023H89.6178C89.6178 21.3957 89.0467 19.5826 86.762 19.5826Z" fill="#C00662"/>
</svg>
