<svg width="184" height="65" viewBox="0 0 184 65" fill="none" xmlns="http://www.w3.org/2000/svg">
<path d="M160.999 35.7159C160.297 35.9608 159.541 36.1005 158.757 36.1005C156.864 36.1005 155.154 35.3295 153.919 34.0795C153.802 33.9693 153.697 33.8414 153.591 33.7222C152.803 32.8047 152.256 31.6813 152.039 30.4436C151.975 30.054 151.929 29.6535 151.929 29.2499C151.929 28.9006 151.964 28.5646 152.014 28.2312C152.28 26.4153 153.26 24.8356 154.656 23.7789C155.799 22.9131 157.215 22.3951 158.757 22.3951C159.279 22.3951 159.792 22.4591 160.285 22.5752C161.906 22.9471 163.305 23.8982 164.261 25.1971C165.09 26.3341 165.587 27.7305 165.587 29.2499C165.587 31.2246 164.745 33.0047 163.409 34.2528C162.722 34.8968 161.906 35.3993 160.999 35.7159ZM174.663 27.8326C174.588 27.0108 174.447 26.2053 174.245 25.422C173.817 23.7843 173.117 22.2482 172.202 20.8636C171.008 19.054 169.434 17.5002 167.592 16.3119C165.068 14.6887 162.056 13.7422 158.806 13.7422C152.048 13.7422 146.274 17.843 143.961 23.6306C143.834 23.9589 143.711 24.29 143.603 24.6265C143.201 25.8824 142.959 27.2117 142.903 28.5863C142.888 28.804 142.883 29.0249 142.883 29.2499C142.883 29.5977 142.903 29.9456 142.923 30.2898C142.95 30.7107 142.997 31.1284 143.058 31.537C143.26 32.865 143.631 34.1349 144.158 35.3308C144.931 37.091 146.025 38.6811 147.374 40.034C148.44 41.1025 149.658 42.0232 150.998 42.7579C153.308 44.0292 155.97 44.7539 158.806 44.7539C163.164 44.7539 167.112 43.0468 169.987 40.2853C170.033 40.2417 170.077 40.1964 170.124 40.1528C170.761 39.5274 171.348 38.8439 171.865 38.1142C172.573 37.1341 173.159 36.0733 173.621 34.9417C174.332 33.1779 174.734 31.259 174.734 29.2499C174.734 28.7687 174.706 28.2974 174.663 27.8326Z" fill="#00ABBF"/>
<path d="M115.133 44.299V14.7236H108.645V14.7264H105.68L105.694 44.299H115.133Z" fill="#AC2284"/>
<path d="M142.461 39.6662C141.922 37.5926 141.35 35.3476 141.35 35.3476L140.972 35.4701C138.684 36.208 135.839 36.5286 134.069 36.2415C132.743 36.0279 131.56 35.6202 130.644 34.9857C130.135 34.7072 129.029 33.5258 128.982 33.4487C128.189 32.3547 127.77 30.9842 127.764 29.3578C127.779 25.5753 130.018 23.1253 134.063 22.4754C135.839 22.1834 138.675 22.4986 140.972 23.2423L141.348 23.3698C141.348 23.3698 142.702 16.5976 143.045 15.1427C140.829 14.2202 138.139 13.7866 135.011 13.7866C124.77 13.7952 117.857 20.259 117.808 29.3102C117.801 29.3641 117.801 29.3841 117.801 29.3841C117.819 30.8073 117.998 32.172 118.332 33.4487C118.355 33.5258 118.683 34.6115 118.849 34.9744H118.814C119.648 37.1196 120.905 38.9264 122.531 40.4077V40.4136L123.284 41.0522C126.248 43.4219 130.282 44.8215 135.028 44.9208C139.565 45.031 141.668 44.2224 143.476 43.3942C143.281 42.7425 142.885 41.264 142.461 39.6662Z" fill="#85C440"/>
<path d="M44.6216 40.839L44.1266 38.4466L42.5904 31.0762L39.1898 14.7236H28.7408L24.6587 29.3147L20.5816 14.7236H10.5079L6.94639 31.079L5.33934 38.4466L4.81874 40.839L4.06641 44.2913V44.2922H13.8065L16.4991 31.0762L16.9201 28.9995L19.1885 36.6493L21.4597 44.2922H27.8604L30.1312 36.6493L32.4023 28.9995L32.8269 31.0762L35.5136 44.2936H45.341L44.6216 40.839Z" fill="#EE2743"/>
<path d="M66.9824 25.2352H55.6476C56.1124 22.8405 57.6843 21.3398 59.7242 20.811C60.2685 20.6695 60.8476 20.5951 61.4482 20.5951C64.0819 20.5951 66.4965 22.4301 66.9824 25.2352ZM55.4922 31.2559H76.3162V30.1678C76.3162 21.2568 71.9494 15.2865 64.2606 14.0665C63.6024 13.9617 62.92 13.8905 62.2088 13.856C61.8847 13.8402 61.5538 13.8315 61.2197 13.8315C61.0643 13.8315 60.9153 13.8356 60.7635 13.8384C59.7278 13.8674 58.7237 13.9653 57.7611 14.1477C50.6162 15.4851 45.7109 21.0477 45.7109 29.5388C45.7109 33.9158 47.0337 37.4253 49.2582 40.0018C51.5381 42.6382 54.7668 44.299 58.5157 44.9131C59.2644 45.036 60.0313 45.1186 60.8157 45.1589H62.9191C68.85 44.8383 74.4646 41.6622 75.9437 35.0991H66.5377L66.5345 35.1064C65.4718 37.0248 63.9946 37.7754 61.94 37.7917C61.9131 37.7917 61.893 37.794 61.8692 37.794C59.1711 37.794 57.2336 36.7613 56.2477 34.8129C56.0749 34.485 55.9369 34.129 55.8258 33.7458C55.6682 33.2142 55.5621 32.6419 55.5155 32.0119C55.5009 31.7661 55.4922 31.5171 55.4922 31.2559Z" fill="#ED1D86"/>
<path d="M60.7769 13.3221L61.5905 12.8922L63.32 11.9742L65.6437 10.7447L70.7807 8.02121L65.5473 1.56152L56.9019 9.17046L59.6411 12.1039L60.7769 13.3221Z" fill="#ED1D86"/>
<path d="M97.7601 34.4787L94.7695 29.5492L97.8218 24.4787L103.704 14.7236L103.148 14.7268L93.0743 14.7309L91.693 17.3111L88.8487 22.6233L86.0108 17.3306L84.6144 14.7309L73.9844 14.7359L79.8705 24.476L82.9319 29.5492L79.9491 34.4787L73.9963 44.3149L84.6263 44.3135L86.0144 41.7361L88.8427 36.4579L91.693 41.7257L93.0862 44.3086H103.718L97.7601 34.4787Z" fill="#EFB627"/>
<path d="M154.659 23.7968C155.801 22.931 157.217 22.4131 158.76 22.4131C159.282 22.4131 159.795 22.477 160.288 22.5931C160.7 22.487 161.116 22.3809 161.536 22.2661C165.315 21.2557 168.837 20.8865 172.205 20.8815C171.011 19.0719 169.437 17.5181 167.595 16.3298C164.194 16.5598 160.783 17.6428 156.702 19.6701C151.657 22.1732 147.316 23.2449 143.964 23.6485C143.836 23.9769 143.714 24.308 143.605 24.6445C146.411 24.7574 150.081 24.5937 154.659 23.7968Z" fill="#13828F"/>
<path d="M164.262 25.1931C165.091 26.3301 165.588 27.7266 165.588 29.2459C168.087 28.9107 170.753 28.4998 173.599 27.9969C173.958 27.9361 174.31 27.8839 174.664 27.8286C174.589 27.0068 174.447 26.2013 174.246 25.4181C169.964 24.4457 166.988 24.5994 164.262 25.1931Z" fill="#13828F"/>
<path d="M152.039 30.4553C151.975 30.0657 151.929 29.6652 151.929 29.2616C151.929 28.9123 151.964 28.5763 152.014 28.2429C150.796 28.3958 149.476 28.5023 148.007 28.54C146.105 28.5862 144.413 28.6048 142.903 28.598C142.888 28.8157 142.883 29.0366 142.883 29.2616C142.883 29.6094 142.903 29.9573 142.923 30.3015C145.446 30.4956 148.46 30.5759 152.039 30.4553Z" fill="#13828F"/>
<path d="M169.988 40.2916C170.033 40.2481 170.078 40.2027 170.124 40.1592C168.52 39.7224 166.878 39.273 165.186 38.8167C156.562 36.4901 152.994 38.4507 147.375 40.0403C148.44 41.1089 149.659 42.0295 150.999 42.7643C154.613 42.3724 158.62 41.8119 163.066 41.0291C165.46 40.6077 167.753 40.3846 169.988 40.2916Z" fill="#13828F"/>
<path d="M153.919 34.0872C153.802 33.977 153.697 33.8491 153.591 33.7298C152.236 33.3565 150.853 32.9778 149.435 32.5978C146.942 31.9252 144.876 31.6154 143.059 31.5447C143.26 32.8726 143.631 34.1425 144.159 35.3385C145.184 35.1761 146.236 34.9992 147.311 34.8101C149.591 34.4092 151.782 34.1919 153.919 34.0872Z" fill="#13828F"/>
<path d="M161 35.7294C164.859 36.7299 168.465 37.5753 171.866 38.1277C172.574 37.1476 173.16 36.0868 173.622 34.9553C170.188 34.8192 166.826 34.4968 163.411 34.2664C162.724 34.9104 161.907 35.4129 161 35.7294Z" fill="#13828F"/>
<path d="M111.272 38.2385L108.645 14.7236H105.68L105.694 44.2963H115.133V38.2344L111.272 38.2385Z" fill="#7C2B6E"/>
<path d="M126.451 30.6857C126.264 29.7664 125.784 30.0621 123.671 30.2453C121.909 30.4004 121.57 30.062 121.57 29.5269C121.57 28.9908 121.938 28.5699 123.671 28.8053C125.772 29.0856 126.264 29.2842 126.451 28.3676C126.63 27.5055 125.167 27.3957 123.843 27.1717C119.518 26.4338 119.231 28.9618 119.231 29.5269C119.231 30.087 119.135 32.5864 123.843 31.8803C125.172 31.6757 126.63 31.5451 126.451 30.6857Z" fill="#73A345"/>
<path d="M124.352 25.4235C126.099 26.3719 126.661 26.8454 127.209 25.9283C127.761 25.014 126.989 24.8226 125.192 23.9514C123.399 23.0833 123.029 23.5024 122.918 23.7042C122.806 23.9078 122.602 24.4711 124.352 25.4235Z" fill="#73A345"/>
<path d="M126.33 22.4279C127.328 23.3223 128.352 24.3518 128.979 23.6783C129.649 22.9603 129.087 22.7757 127.615 21.2782C126.388 20.0287 126.461 19.5525 126.918 19.2187C127.378 18.8844 127.966 18.903 128.852 20.3725C129.918 22.1558 130.058 22.6556 130.959 22.227C131.809 21.8306 130.983 20.6446 130.354 19.4885C128.288 15.7265 125.946 17.0871 125.464 17.4417C124.986 17.7896 122.789 19.2767 126.33 22.4279Z" fill="#73A345"/>
<path d="M133.464 21.3141C134.568 21.1585 134.255 20.4664 133.889 18.5947C133.513 16.7148 132.943 16.7007 132.707 16.7402C132.463 16.7797 131.866 16.967 132.141 18.8591C132.41 20.7499 132.363 21.4597 133.464 21.3141Z" fill="#73A345"/>
<path d="M133.634 37.6202C132.554 37.3526 132.554 38.1073 132.124 39.97C131.69 41.8331 132.212 42.058 132.452 42.1111C132.689 42.1619 133.318 42.2027 133.842 40.3645C134.371 38.52 134.708 37.8842 133.634 37.6202Z" fill="#73A345"/>
<path d="M130.624 36.8118C129.782 36.3941 129.723 36.9147 128.597 38.5298C127.66 39.8745 127.186 39.9157 126.755 39.591C126.323 39.2672 126.217 38.7543 127.446 37.6617C128.939 36.3356 129.386 36.1002 128.775 35.4126C128.199 34.7672 127.227 35.7455 126.253 36.5533C123.057 39.186 124.903 40.9153 125.351 41.2528C125.801 41.5907 127.733 43.1658 130.001 39.3906C130.645 38.3234 131.418 37.2023 130.624 36.8118Z" fill="#73A345"/>
<path d="M127.403 33.3478C126.987 32.3754 126.347 32.8258 124.508 33.604C122.671 34.3877 122.782 34.9193 122.884 35.1302C122.98 35.3429 123.32 35.8427 125.196 35.1488C127.072 34.4521 127.816 34.3238 127.403 33.3478Z" fill="#73A345"/>
<path d="M136.44 21.1753C137.33 21.1622 137.131 20.7077 137.307 18.8986C137.448 17.3969 137.822 17.1615 138.328 17.2445C138.835 17.333 139.165 17.7108 138.665 19.1335C138.059 20.8574 137.79 21.2392 138.627 21.5531C139.405 21.8402 139.745 20.627 140.177 19.5417C141.575 16.0204 139.236 15.3714 138.703 15.2816C138.173 15.1864 135.835 14.7047 135.739 18.7793C135.712 19.934 135.601 21.1808 136.44 21.1753Z" fill="#73A345"/>
<path d="M138.747 37.3493C137.921 37.6772 138.287 38.0255 138.846 39.7621C139.308 41.2106 139.054 41.5567 138.547 41.6587C138.047 41.7549 137.587 41.5231 137.488 40.0287C137.374 38.2151 137.468 37.7656 136.572 37.7738C135.732 37.7792 135.893 39.0273 135.922 40.1775C136.025 43.9396 138.445 43.7182 138.975 43.613C139.501 43.5101 141.867 43.1386 140.345 39.3212C139.914 38.2405 139.519 37.0418 138.747 37.3493Z" fill="#73A345"/>
<path d="M24.6889 36.79C27.8289 36.7918 30.378 34.2602 30.378 31.1444L27.8582 31.1458C27.8582 32.8828 26.4417 34.2938 24.6889 34.2938C22.9328 34.2938 21.5132 32.8828 21.5132 31.1458L18.9961 31.1431C18.9961 34.2602 21.5424 36.79 24.6889 36.79Z" fill="#B22B36"/>
<path d="M35.5138 44.3157H45.3412L44.6218 40.8612H37.2401L35.7186 33.5987H40.5214L41.074 36.0582H38.7037L39.195 38.4688H44.1268L42.5906 31.0984H32.8271L35.5138 44.3157Z" fill="#B22B36"/>
<path d="M5.33934 38.4688H9.97812L10.4699 36.0582H8.07032L8.62612 33.5987H13.397L11.875 40.8612H4.81874L4.06641 44.3144H13.8065L16.4991 31.0984L6.94639 31.1011L5.33934 38.4688Z" fill="#B22B36"/>
<path d="M28.5853 36.6755V39.1305H26.1386V41.39H23.1562V39.1305H20.7356V36.6755H19.1875L21.4587 44.3185H27.8594L30.1302 36.6755H28.5853Z" fill="#B22B36"/>
<path d="M64.7831 9.88796C66.9395 7.37266 63.5883 4.68457 63.5883 4.68457C63.5883 4.68457 63.969 5.63019 62.2715 7.41938C61.3144 8.43031 61.4373 9.89023 61.4373 9.89023C59.9509 9.15188 59.6694 10.9188 59.6401 12.0921L60.776 13.3103L61.5895 12.8804C62.9772 11.1397 63.6619 9.26662 63.7643 6.52592C64.1651 8.76365 63.9571 10.4857 63.3191 11.9624L65.6428 10.7329C65.3503 10.1551 64.7831 9.88796 64.7831 9.88796Z" fill="#B42368"/>
<path d="M55.7997 27.3237C55.6123 26.6285 55.5826 25.9187 55.6855 25.2284H55.6475C56.1124 22.8337 57.6842 21.333 59.7241 20.8042C63.5968 19.3193 60.9043 17.4535 60.9043 17.4535C65.6011 16.936 62.9839 15.0924 62.9839 15.0924C63.4881 14.7259 63.9067 14.3835 64.2605 14.0597C63.6023 13.9549 62.9199 13.8837 62.2087 13.8492C61.179 15.2194 59.7648 16.4539 58.182 17.8653C54.9359 20.752 51.4594 26.6879 56.4319 30.7307C49.7614 27.9999 51.0179 21.6491 56.3971 17.5401C58.2135 16.155 59.651 14.9903 60.7635 13.8315C59.7278 13.8606 58.7236 13.9585 57.761 14.1408C57.4996 14.8066 57.3451 15.4302 57.3451 15.4302C54.8691 13.3005 53.3325 18.707 53.3325 18.707C50.83 16.0969 48.8363 20.3402 48.802 22.8256C48.749 26.2919 50.3826 30.0336 55.5154 32.0051C55.5008 31.7593 55.4921 31.5103 55.4921 31.2491H59.7392C57.8511 30.3356 56.265 29.0648 55.7997 27.3237Z" fill="#B42368"/>
<path d="M60.0183 26.5328C59.989 26.0072 60.0535 25.5931 60.176 25.2534H58.0515C57.8577 25.6738 57.7763 26.2104 57.8609 26.8902C58.1713 29.2676 60.2669 30.5697 62.1898 31.2741H63.8435C62.2748 30.4042 60.1444 28.8123 60.0183 26.5328Z" fill="#B42368"/>
<path d="M50.9263 32.3761C47.5284 33.0473 47.9503 37.0543 47.9503 37.0543C47.9503 37.0543 48.5646 35.4306 50.1506 34.6143C51.5968 33.8705 53.9205 33.6274 56.2447 34.8048C56.0719 34.4769 55.9339 34.1208 55.8228 33.7376C54.7898 32.8196 53.1595 31.9325 50.9263 32.3761Z" fill="#B42368"/>
<path d="M59.8581 40.2353C58.4449 41.5056 56.5508 42.4417 54.1484 41.9746C52.3074 41.6113 51.1953 40.3859 51.7571 38.5563C52.2548 36.9952 53.9144 36.9399 54.4149 37.3023C53.5812 37.9091 53.6306 39.7886 55.7057 39.8979C57.6368 39.9355 58.3306 37.3322 56.3081 36.1898C53.8792 34.8219 49.6477 35.7698 49.2578 40.009C51.5377 42.6454 54.7664 44.3062 58.5153 44.9203C63.4909 43.3728 65.6798 36.8583 66.5341 35.1135C65.4714 37.032 63.9941 37.7826 61.9396 37.7989C61.2865 38.7087 60.6228 39.5464 59.8581 40.2353Z" fill="#B42368"/>
<path d="M87.6869 34.0571C85.1036 33.3161 83.6081 30.6529 84.3517 28.1136C84.8696 26.3294 86.3527 25.0849 88.0846 24.7488C87.5699 25.284 87.1723 25.9461 86.9497 26.704C86.2097 29.2447 87.7011 31.9033 90.2858 32.6453C91.0546 32.8648 91.8334 32.8897 92.5744 32.7469C91.3659 34.005 89.4983 34.5737 87.6869 34.0571ZM96.8059 39.3077L94.4794 33.9011L97.7602 34.4794L94.7696 29.5499L97.8219 24.4794L94.4794 25.0686L96.8059 19.667L91.971 23.1043L91.6931 17.3118L88.8488 22.624L86.0109 17.3313L85.7302 23.1043L80.8949 19.667L83.2273 25.0686L79.8706 24.4767L82.932 29.5499L79.9492 34.4794L83.2273 33.9011L80.8949 39.3077L85.7302 35.8704L86.0145 41.7368L88.8429 36.4586L91.6931 41.7264L91.971 35.8704L96.8059 39.3077Z" fill="#EC9130"/>
<path d="M177.235 16.1459H176.957V15.4266C177.018 15.4116 177.127 15.3962 177.281 15.3962C177.651 15.3962 177.821 15.5495 177.821 15.779C177.821 16.0389 177.558 16.1459 177.235 16.1459ZM177.928 16.33V16.2997C178.222 16.2076 178.454 16.0085 178.454 15.7024C178.454 15.457 178.346 15.2733 178.192 15.1663C178.02 15.0438 177.806 14.9672 177.327 14.9672C176.911 14.9672 176.587 15.0125 176.356 15.0438V17.5555H176.942V16.5595H177.219C177.543 16.5595 177.697 16.6829 177.745 16.9423C177.821 17.2498 177.867 17.463 177.944 17.5555H178.562C178.516 17.463 178.454 17.3256 178.377 16.9423C178.3 16.6058 178.176 16.4071 177.928 16.33ZM177.358 18.2589C176.232 18.2589 175.383 17.3714 175.383 16.2534C175.383 15.1513 176.232 14.2479 177.327 14.2479H177.343C178.454 14.2479 179.286 15.1513 179.286 16.2684C179.286 17.3714 178.454 18.2743 177.358 18.2589ZM177.358 13.7422H177.343C175.892 13.7422 174.734 14.8456 174.734 16.2534C174.734 17.6625 175.892 18.78 177.343 18.78C178.76 18.78 179.882 17.7129 179.933 16.3491V16.1582C179.882 14.7962 178.76 13.7422 177.358 13.7422Z" fill="#00ABBF"/>
<path d="M26.3781 62.1704L28.4719 55.6782H29.9484L26.9172 64.1313H25.8156L22.7531 55.6782H24.2297L26.3781 62.1704ZM34.5094 64.1313H33.0641V55.6782H34.5094V64.1313ZM32.9469 53.436C32.9469 53.2017 33.0172 53.0037 33.1578 52.8423C33.3036 52.6808 33.5172 52.6001 33.7984 52.6001C34.0797 52.6001 34.2932 52.6808 34.4391 52.8423C34.5849 53.0037 34.6578 53.2017 34.6578 53.436C34.6578 53.6704 34.5849 53.8657 34.4391 54.022C34.2932 54.1782 34.0797 54.2563 33.7984 54.2563C33.5172 54.2563 33.3036 54.1782 33.1578 54.022C33.0172 53.8657 32.9469 53.6704 32.9469 53.436ZM43.3516 61.8892C43.3516 61.4985 43.2031 61.1965 42.9063 60.9829C42.6146 60.7642 42.1016 60.5767 41.3672 60.4204C40.638 60.2642 40.0573 60.0767 39.625 59.8579C39.1979 59.6392 38.8802 59.3787 38.6719 59.0767C38.4688 58.7746 38.3672 58.4152 38.3672 57.9985C38.3672 57.3058 38.6589 56.7199 39.2422 56.2407C39.8307 55.7616 40.5807 55.522 41.4922 55.522C42.4505 55.522 43.2266 55.7694 43.8203 56.2642C44.4193 56.759 44.7188 57.3918 44.7188 58.1626H43.2656C43.2656 57.7668 43.0964 57.4256 42.7578 57.1392C42.4245 56.8527 42.0026 56.7095 41.4922 56.7095C40.9661 56.7095 40.5547 56.8241 40.2578 57.0532C39.9609 57.2824 39.8125 57.5819 39.8125 57.9517C39.8125 58.3006 39.9505 58.5636 40.2266 58.7407C40.5026 58.9178 41 59.0871 41.7188 59.2485C42.4427 59.41 43.0286 59.6027 43.4766 59.8267C43.9245 60.0506 44.2552 60.3215 44.4688 60.6392C44.6875 60.9517 44.7969 61.3345 44.7969 61.7876C44.7969 62.5428 44.4948 63.1496 43.8906 63.6079C43.2865 64.061 42.5026 64.2876 41.5391 64.2876C40.862 64.2876 40.263 64.1678 39.7422 63.9282C39.2214 63.6886 38.8125 63.3553 38.5156 62.9282C38.224 62.4959 38.0781 62.0298 38.0781 61.5298H39.5234C39.5495 62.0142 39.7422 62.3996 40.1016 62.686C40.4661 62.9673 40.9453 63.1079 41.5391 63.1079C42.0859 63.1079 42.5234 62.9985 42.8516 62.7798C43.1849 62.5558 43.3516 62.259 43.3516 61.8892ZM49.85 64.1313H48.4047V55.6782H49.85V64.1313ZM48.2875 53.436C48.2875 53.2017 48.3578 53.0037 48.4984 52.8423C48.6443 52.6808 48.8578 52.6001 49.1391 52.6001C49.4203 52.6001 49.6339 52.6808 49.7797 52.8423C49.9255 53.0037 49.9984 53.2017 49.9984 53.436C49.9984 53.6704 49.9255 53.8657 49.7797 54.022C49.6339 54.1782 49.4203 54.2563 49.1391 54.2563C48.8578 54.2563 48.6443 54.1782 48.4984 54.022C48.3578 53.8657 48.2875 53.6704 48.2875 53.436ZM55.7313 53.6313V55.6782H57.3094V56.7954H55.7313V62.0376C55.7313 62.3761 55.8016 62.6313 55.9422 62.8032C56.0828 62.9699 56.3224 63.0532 56.6609 63.0532C56.8276 63.0532 57.0568 63.022 57.3484 62.9595V64.1313C56.9682 64.2355 56.5984 64.2876 56.2391 64.2876C55.5932 64.2876 55.1063 64.0923 54.7781 63.7017C54.45 63.311 54.2859 62.7563 54.2859 62.0376V56.7954H52.7469V55.6782H54.2859V53.6313H55.7313ZM61.9641 55.6782L62.0031 56.6157C62.6229 55.8866 63.4589 55.522 64.5109 55.522C65.6932 55.522 66.4979 55.9751 66.925 56.8813C67.2063 56.4751 67.5708 56.147 68.0188 55.897C68.4719 55.647 69.0057 55.522 69.6203 55.522C71.4745 55.522 72.4172 56.5037 72.4484 58.4673V64.1313H71.0031V58.5532C71.0031 57.9491 70.8651 57.4985 70.5891 57.2017C70.313 56.8996 69.8495 56.7485 69.1984 56.7485C68.662 56.7485 68.2167 56.91 67.8625 57.2329C67.5083 57.5506 67.3026 57.9803 67.2453 58.522V64.1313H65.7922V58.5923C65.7922 57.3631 65.1906 56.7485 63.9875 56.7485C63.0396 56.7485 62.3911 57.1522 62.0422 57.9595V64.1313H60.5969V55.6782H61.9641ZM79.7438 64.2876C78.5979 64.2876 77.6656 63.9126 76.9469 63.1626C76.2281 62.4074 75.8688 61.3996 75.8688 60.1392V59.8735C75.8688 59.035 76.0276 58.2876 76.3453 57.6313C76.6682 56.9699 77.1161 56.4543 77.6891 56.0845C78.2672 55.7095 78.8922 55.522 79.5641 55.522C80.663 55.522 81.5172 55.884 82.1266 56.6079C82.7359 57.3319 83.0406 58.3683 83.0406 59.7173V60.3188H77.3141C77.3349 61.1522 77.5771 61.8267 78.0406 62.3423C78.5094 62.8527 79.1031 63.1079 79.8219 63.1079C80.3323 63.1079 80.7646 63.0037 81.1188 62.7954C81.4729 62.5871 81.7828 62.311 82.0484 61.9673L82.9313 62.6548C82.2229 63.7433 81.1604 64.2876 79.7438 64.2876ZM79.5641 56.7095C78.9807 56.7095 78.4911 56.923 78.0953 57.3501C77.6995 57.772 77.4547 58.3657 77.3609 59.1313H81.5953V59.022C81.5536 58.2876 81.3557 57.7199 81.0016 57.3188C80.6474 56.9126 80.1682 56.7095 79.5641 56.7095ZM89.1563 58.7642L91.0313 55.6782H92.7188L89.9531 59.8579L92.8047 64.1313H91.1328L89.1797 60.9673L87.2266 64.1313H85.5469L88.3984 59.8579L85.6328 55.6782H87.3047L89.1563 58.7642ZM97.4281 64.1313H95.9828V55.6782H97.4281V64.1313ZM95.8656 53.436C95.8656 53.2017 95.9359 53.0037 96.0766 52.8423C96.2224 52.6808 96.4359 52.6001 96.7172 52.6001C96.9984 52.6001 97.212 52.6808 97.3578 52.8423C97.5037 53.0037 97.5766 53.2017 97.5766 53.436C97.5766 53.6704 97.5037 53.8657 97.3578 54.022C97.212 54.1782 96.9984 54.2563 96.7172 54.2563C96.4359 54.2563 96.2224 54.1782 96.0766 54.022C95.9359 53.8657 95.8656 53.6704 95.8656 53.436ZM104.739 63.1079C105.255 63.1079 105.705 62.9517 106.091 62.6392C106.476 62.3267 106.69 61.936 106.731 61.4673H108.098C108.072 61.9517 107.906 62.4126 107.598 62.8501C107.291 63.2876 106.88 63.6366 106.364 63.897C105.854 64.1574 105.312 64.2876 104.739 64.2876C103.588 64.2876 102.671 63.9048 101.989 63.1392C101.312 62.3683 100.973 61.3162 100.973 59.9829V59.7407C100.973 58.9178 101.124 58.186 101.427 57.5454C101.729 56.9048 102.161 56.4074 102.723 56.0532C103.291 55.6991 103.96 55.522 104.731 55.522C105.679 55.522 106.466 55.8058 107.091 56.3735C107.721 56.9412 108.057 57.6782 108.098 58.5845H106.731C106.69 58.0376 106.481 57.5897 106.106 57.2407C105.736 56.8866 105.278 56.7095 104.731 56.7095C103.997 56.7095 103.427 56.9751 103.02 57.5063C102.619 58.0324 102.419 58.7954 102.419 59.7954V60.0688C102.419 61.0428 102.619 61.7928 103.02 62.3188C103.421 62.8449 103.994 63.1079 104.739 63.1079ZM110.941 59.8267C110.941 58.9985 111.102 58.2537 111.425 57.5923C111.753 56.9308 112.206 56.4204 112.784 56.061C113.368 55.7017 114.032 55.522 114.777 55.522C115.928 55.522 116.857 55.9204 117.566 56.7173C118.279 57.5142 118.636 58.5741 118.636 59.897V59.9985C118.636 60.8215 118.477 61.561 118.159 62.2173C117.847 62.8683 117.396 63.3761 116.808 63.7407C116.224 64.1053 115.553 64.2876 114.792 64.2876C113.646 64.2876 112.717 63.8892 112.003 63.0923C111.295 62.2954 110.941 61.2407 110.941 59.9282V59.8267ZM112.394 59.9985C112.394 60.936 112.61 61.6886 113.042 62.2563C113.48 62.8241 114.063 63.1079 114.792 63.1079C115.527 63.1079 116.11 62.8215 116.542 62.2485C116.974 61.6704 117.191 60.8631 117.191 59.8267C117.191 58.8996 116.969 58.1496 116.527 57.5767C116.089 56.9985 115.506 56.7095 114.777 56.7095C114.063 56.7095 113.488 56.9933 113.05 57.561C112.613 58.1287 112.394 58.9412 112.394 59.9985ZM122.08 63.3735C122.08 63.1235 122.153 62.9152 122.298 62.7485C122.449 62.5819 122.673 62.4985 122.97 62.4985C123.267 62.4985 123.491 62.5819 123.642 62.7485C123.798 62.9152 123.877 63.1235 123.877 63.3735C123.877 63.6131 123.798 63.8136 123.642 63.9751C123.491 64.1366 123.267 64.2173 122.97 64.2173C122.673 64.2173 122.449 64.1366 122.298 63.9751C122.153 63.8136 122.08 63.6131 122.08 63.3735ZM131.258 63.1079C131.773 63.1079 132.224 62.9517 132.609 62.6392C132.995 62.3267 133.208 61.936 133.25 61.4673H134.617C134.591 61.9517 134.424 62.4126 134.117 62.8501C133.81 63.2876 133.398 63.6366 132.883 63.897C132.372 64.1574 131.831 64.2876 131.258 64.2876C130.107 64.2876 129.19 63.9048 128.508 63.1392C127.831 62.3683 127.492 61.3162 127.492 59.9829V59.7407C127.492 58.9178 127.643 58.186 127.945 57.5454C128.247 56.9048 128.68 56.4074 129.242 56.0532C129.81 55.6991 130.479 55.522 131.25 55.522C132.198 55.522 132.984 55.8058 133.609 56.3735C134.24 56.9412 134.576 57.6782 134.617 58.5845H133.25C133.208 58.0376 133 57.5897 132.625 57.2407C132.255 56.8866 131.797 56.7095 131.25 56.7095C130.516 56.7095 129.945 56.9751 129.539 57.5063C129.138 58.0324 128.938 58.7954 128.938 59.7954V60.0688C128.938 61.0428 129.138 61.7928 129.539 62.3188C129.94 62.8449 130.513 63.1079 131.258 63.1079ZM137.459 59.8267C137.459 58.9985 137.621 58.2537 137.944 57.5923C138.272 56.9308 138.725 56.4204 139.303 56.061C139.886 55.7017 140.551 55.522 141.295 55.522C142.446 55.522 143.376 55.9204 144.084 56.7173C144.798 57.5142 145.155 58.5741 145.155 59.897V59.9985C145.155 60.8215 144.996 61.561 144.678 62.2173C144.366 62.8683 143.915 63.3761 143.327 63.7407C142.743 64.1053 142.071 64.2876 141.311 64.2876C140.165 64.2876 139.235 63.8892 138.522 63.0923C137.814 62.2954 137.459 61.2407 137.459 59.9282V59.8267ZM138.913 59.9985C138.913 60.936 139.129 61.6886 139.561 62.2563C139.998 62.8241 140.582 63.1079 141.311 63.1079C142.045 63.1079 142.629 62.8215 143.061 62.2485C143.493 61.6704 143.709 60.8631 143.709 59.8267C143.709 58.8996 143.488 58.1496 143.045 57.5767C142.608 56.9985 142.024 56.7095 141.295 56.7095C140.582 56.7095 140.006 56.9933 139.569 57.561C139.131 58.1287 138.913 58.9412 138.913 59.9985ZM149.927 55.6782L149.966 56.6157C150.585 55.8866 151.421 55.522 152.473 55.522C153.656 55.522 154.46 55.9751 154.888 56.8813C155.169 56.4751 155.533 56.147 155.981 55.897C156.434 55.647 156.968 55.522 157.583 55.522C159.437 55.522 160.38 56.5037 160.411 58.4673V64.1313H158.966V58.5532C158.966 57.9491 158.828 57.4985 158.552 57.2017C158.276 56.8996 157.812 56.7485 157.161 56.7485C156.624 56.7485 156.179 56.91 155.825 57.2329C155.471 57.5506 155.265 57.9803 155.208 58.522V64.1313H153.755V58.5923C153.755 57.3631 153.153 56.7485 151.95 56.7485C151.002 56.7485 150.354 57.1522 150.005 57.9595V64.1313H148.559V55.6782H149.927Z" fill="black"/>
<path d="M160.999 35.7159C160.297 35.9608 159.541 36.1005 158.757 36.1005C156.864 36.1005 155.154 35.3295 153.919 34.0795C153.802 33.9693 153.697 33.8414 153.591 33.7222C152.803 32.8047 152.256 31.6813 152.039 30.4436C151.975 30.054 151.929 29.6535 151.929 29.2499C151.929 28.9006 151.964 28.5646 152.014 28.2312C152.28 26.4153 153.26 24.8356 154.656 23.7789C155.799 22.9131 157.215 22.3951 158.757 22.3951C159.279 22.3951 159.792 22.4591 160.285 22.5752C161.906 22.9471 163.305 23.8982 164.261 25.1971C165.09 26.3341 165.587 27.7305 165.587 29.2499C165.587 31.2246 164.745 33.0047 163.409 34.2528C162.722 34.8968 161.906 35.3993 160.999 35.7159ZM174.663 27.8326C174.588 27.0108 174.447 26.2053 174.245 25.422C173.817 23.7843 173.117 22.2482 172.202 20.8636C171.008 19.054 169.434 17.5002 167.592 16.3119C165.068 14.6887 162.056 13.7422 158.806 13.7422C152.048 13.7422 146.274 17.843 143.961 23.6306C143.834 23.9589 143.711 24.29 143.603 24.6265C143.201 25.8824 142.959 27.2117 142.903 28.5863C142.888 28.804 142.883 29.0249 142.883 29.2499C142.883 29.5977 142.903 29.9456 142.923 30.2898C142.95 30.7107 142.997 31.1284 143.058 31.537C143.26 32.865 143.631 34.1349 144.158 35.3308C144.931 37.091 146.025 38.6811 147.374 40.034C148.44 41.1025 149.658 42.0232 150.998 42.7579C153.308 44.0292 155.97 44.7539 158.806 44.7539C163.164 44.7539 167.112 43.0468 169.987 40.2853C170.033 40.2417 170.077 40.1964 170.124 40.1528C170.761 39.5274 171.348 38.8439 171.865 38.1142C172.573 37.1341 173.159 36.0733 173.621 34.9417C174.332 33.1779 174.734 31.259 174.734 29.2499C174.734 28.7687 174.706 28.2974 174.663 27.8326Z" fill="#00ABBF"/>
<path d="M115.133 44.299V14.7236H108.645V14.7264H105.68L105.694 44.299H115.133Z" fill="#AC2284"/>
<path d="M142.461 39.6662C141.922 37.5926 141.35 35.3476 141.35 35.3476L140.972 35.4701C138.684 36.208 135.839 36.5286 134.069 36.2415C132.743 36.0279 131.56 35.6202 130.644 34.9857C130.135 34.7072 129.029 33.5258 128.982 33.4487C128.189 32.3547 127.77 30.9842 127.764 29.3578C127.779 25.5753 130.018 23.1253 134.063 22.4754C135.839 22.1834 138.675 22.4986 140.972 23.2423L141.348 23.3698C141.348 23.3698 142.702 16.5976 143.045 15.1427C140.829 14.2202 138.139 13.7866 135.011 13.7866C124.77 13.7952 117.857 20.259 117.808 29.3102C117.801 29.3641 117.801 29.3841 117.801 29.3841C117.819 30.8073 117.998 32.172 118.332 33.4487C118.355 33.5258 118.683 34.6115 118.849 34.9744H118.814C119.648 37.1196 120.905 38.9264 122.531 40.4077V40.4136L123.284 41.0522C126.248 43.4219 130.282 44.8215 135.028 44.9208C139.565 45.031 141.668 44.2224 143.476 43.3942C143.281 42.7425 142.885 41.264 142.461 39.6662Z" fill="#85C440"/>
<path d="M44.6216 40.839L44.1266 38.4466L42.5904 31.0762L39.1898 14.7236H28.7408L24.6587 29.3147L20.5816 14.7236H10.5079L6.94639 31.079L5.33934 38.4466L4.81874 40.839L4.06641 44.2913V44.2922H13.8065L16.4991 31.0762L16.9201 28.9995L19.1885 36.6493L21.4597 44.2922H27.8604L30.1312 36.6493L32.4023 28.9995L32.8269 31.0762L35.5136 44.2936H45.341L44.6216 40.839Z" fill="#EE2743"/>
<path d="M66.9824 25.2352H55.6476C56.1124 22.8405 57.6843 21.3398 59.7242 20.811C60.2685 20.6695 60.8476 20.5951 61.4482 20.5951C64.0819 20.5951 66.4965 22.4301 66.9824 25.2352ZM55.4922 31.2559H76.3162V30.1678C76.3162 21.2568 71.9494 15.2865 64.2606 14.0665C63.6024 13.9617 62.92 13.8905 62.2088 13.856C61.8847 13.8402 61.5538 13.8315 61.2197 13.8315C61.0643 13.8315 60.9153 13.8356 60.7635 13.8384C59.7278 13.8674 58.7237 13.9653 57.7611 14.1477C50.6162 15.4851 45.7109 21.0477 45.7109 29.5388C45.7109 33.9158 47.0337 37.4253 49.2582 40.0018C51.5381 42.6382 54.7668 44.299 58.5157 44.9131C59.2644 45.036 60.0313 45.1186 60.8157 45.1589H62.9191C68.85 44.8383 74.4646 41.6622 75.9437 35.0991H66.5377L66.5345 35.1064C65.4718 37.0248 63.9946 37.7754 61.94 37.7917C61.9131 37.7917 61.893 37.794 61.8692 37.794C59.1711 37.794 57.2336 36.7613 56.2477 34.8129C56.0749 34.485 55.9369 34.129 55.8258 33.7458C55.6682 33.2142 55.5621 32.6419 55.5155 32.0119C55.5009 31.7661 55.4922 31.5171 55.4922 31.2559Z" fill="#ED1D86"/>
<path d="M60.7769 13.3221L61.5905 12.8922L63.32 11.9742L65.6437 10.7447L70.7807 8.02121L65.5473 1.56152L56.9019 9.17046L59.6411 12.1039L60.7769 13.3221Z" fill="#ED1D86"/>
<path d="M97.7601 34.4787L94.7695 29.5492L97.8218 24.4787L103.704 14.7236L103.148 14.7268L93.0743 14.7309L91.693 17.3111L88.8487 22.6233L86.0108 17.3306L84.6144 14.7309L73.9844 14.7359L79.8705 24.476L82.9319 29.5492L79.9491 34.4787L73.9963 44.3149L84.6263 44.3135L86.0144 41.7361L88.8427 36.4579L91.693 41.7257L93.0862 44.3086H103.718L97.7601 34.4787Z" fill="#EFB627"/>
<path d="M154.659 23.7968C155.801 22.931 157.217 22.4131 158.76 22.4131C159.282 22.4131 159.795 22.477 160.288 22.5931C160.7 22.487 161.116 22.3809 161.536 22.2661C165.315 21.2557 168.837 20.8865 172.205 20.8815C171.011 19.0719 169.437 17.5181 167.595 16.3298C164.194 16.5598 160.783 17.6428 156.702 19.6701C151.657 22.1732 147.316 23.2449 143.964 23.6485C143.836 23.9769 143.714 24.308 143.605 24.6445C146.411 24.7574 150.081 24.5937 154.659 23.7968Z" fill="#13828F"/>
<path d="M164.262 25.1931C165.091 26.3301 165.588 27.7266 165.588 29.2459C168.087 28.9107 170.753 28.4998 173.599 27.9969C173.958 27.9361 174.31 27.8839 174.664 27.8286C174.589 27.0068 174.447 26.2013 174.246 25.4181C169.964 24.4457 166.988 24.5994 164.262 25.1931Z" fill="#13828F"/>
<path d="M152.039 30.4553C151.975 30.0657 151.929 29.6652 151.929 29.2616C151.929 28.9123 151.964 28.5763 152.014 28.2429C150.796 28.3958 149.476 28.5023 148.007 28.54C146.105 28.5862 144.413 28.6048 142.903 28.598C142.888 28.8157 142.883 29.0366 142.883 29.2616C142.883 29.6094 142.903 29.9573 142.923 30.3015C145.446 30.4956 148.46 30.5759 152.039 30.4553Z" fill="#13828F"/>
<path d="M169.988 40.2916C170.033 40.2481 170.078 40.2027 170.124 40.1592C168.52 39.7224 166.878 39.273 165.186 38.8167C156.562 36.4901 152.994 38.4507 147.375 40.0403C148.44 41.1089 149.659 42.0295 150.999 42.7643C154.613 42.3724 158.62 41.8119 163.066 41.0291C165.46 40.6077 167.753 40.3846 169.988 40.2916Z" fill="#13828F"/>
<path d="M153.919 34.0872C153.802 33.977 153.697 33.8491 153.591 33.7298C152.236 33.3565 150.853 32.9778 149.435 32.5978C146.942 31.9252 144.876 31.6154 143.059 31.5447C143.26 32.8726 143.631 34.1425 144.159 35.3385C145.184 35.1761 146.236 34.9992 147.311 34.8101C149.591 34.4092 151.782 34.1919 153.919 34.0872Z" fill="#13828F"/>
<path d="M161 35.7294C164.859 36.7299 168.465 37.5753 171.866 38.1277C172.574 37.1476 173.16 36.0868 173.622 34.9553C170.188 34.8192 166.826 34.4968 163.411 34.2664C162.724 34.9104 161.907 35.4129 161 35.7294Z" fill="#13828F"/>
<path d="M111.272 38.2385L108.645 14.7236H105.68L105.694 44.2963H115.133V38.2344L111.272 38.2385Z" fill="#7C2B6E"/>
<path d="M126.451 30.6857C126.264 29.7664 125.784 30.0621 123.671 30.2453C121.909 30.4004 121.57 30.062 121.57 29.5269C121.57 28.9908 121.938 28.5699 123.671 28.8053C125.772 29.0856 126.264 29.2842 126.451 28.3676C126.63 27.5055 125.167 27.3957 123.843 27.1717C119.518 26.4338 119.231 28.9618 119.231 29.5269C119.231 30.087 119.135 32.5864 123.843 31.8803C125.172 31.6757 126.63 31.5451 126.451 30.6857Z" fill="#73A345"/>
<path d="M124.352 25.4235C126.099 26.3719 126.661 26.8454 127.209 25.9283C127.761 25.014 126.989 24.8226 125.192 23.9514C123.399 23.0833 123.029 23.5024 122.918 23.7042C122.806 23.9078 122.602 24.4711 124.352 25.4235Z" fill="#73A345"/>
<path d="M126.33 22.4279C127.328 23.3223 128.352 24.3518 128.979 23.6783C129.649 22.9603 129.087 22.7757 127.615 21.2782C126.388 20.0287 126.461 19.5525 126.918 19.2187C127.378 18.8844 127.966 18.903 128.852 20.3725C129.918 22.1558 130.058 22.6556 130.959 22.227C131.809 21.8306 130.983 20.6446 130.354 19.4885C128.288 15.7265 125.946 17.0871 125.464 17.4417C124.986 17.7896 122.789 19.2767 126.33 22.4279Z" fill="#73A345"/>
<path d="M133.464 21.3141C134.568 21.1585 134.255 20.4664 133.889 18.5947C133.513 16.7148 132.943 16.7007 132.707 16.7402C132.463 16.7797 131.866 16.967 132.141 18.8591C132.41 20.7499 132.363 21.4597 133.464 21.3141Z" fill="#73A345"/>
<path d="M133.634 37.6202C132.554 37.3526 132.554 38.1073 132.124 39.97C131.69 41.8331 132.212 42.058 132.452 42.1111C132.689 42.1619 133.318 42.2027 133.842 40.3645C134.371 38.52 134.708 37.8842 133.634 37.6202Z" fill="#73A345"/>
<path d="M130.624 36.8118C129.782 36.3941 129.723 36.9147 128.597 38.5298C127.66 39.8745 127.186 39.9157 126.755 39.591C126.323 39.2672 126.217 38.7543 127.446 37.6617C128.939 36.3356 129.386 36.1002 128.775 35.4126C128.199 34.7672 127.227 35.7455 126.253 36.5533C123.057 39.186 124.903 40.9153 125.351 41.2528C125.801 41.5907 127.733 43.1658 130.001 39.3906C130.645 38.3234 131.418 37.2023 130.624 36.8118Z" fill="#73A345"/>
<path d="M127.403 33.3478C126.987 32.3754 126.347 32.8258 124.508 33.604C122.671 34.3877 122.782 34.9193 122.884 35.1302C122.98 35.3429 123.32 35.8427 125.196 35.1488C127.072 34.4521 127.816 34.3238 127.403 33.3478Z" fill="#73A345"/>
<path d="M136.44 21.1753C137.33 21.1622 137.131 20.7077 137.307 18.8986C137.448 17.3969 137.822 17.1615 138.328 17.2445C138.835 17.333 139.165 17.7108 138.665 19.1335C138.059 20.8574 137.79 21.2392 138.627 21.5531C139.405 21.8402 139.745 20.627 140.177 19.5417C141.575 16.0204 139.236 15.3714 138.703 15.2816C138.173 15.1864 135.835 14.7047 135.739 18.7793C135.712 19.934 135.601 21.1808 136.44 21.1753Z" fill="#73A345"/>
<path d="M138.747 37.3493C137.921 37.6772 138.287 38.0255 138.846 39.7621C139.308 41.2106 139.054 41.5567 138.547 41.6587C138.047 41.7549 137.587 41.5231 137.488 40.0287C137.374 38.2151 137.468 37.7656 136.572 37.7738C135.732 37.7792 135.893 39.0273 135.922 40.1775C136.025 43.9396 138.445 43.7182 138.975 43.613C139.501 43.5101 141.867 43.1386 140.345 39.3212C139.914 38.2405 139.519 37.0418 138.747 37.3493Z" fill="#73A345"/>
<path d="M24.6889 36.79C27.8289 36.7918 30.378 34.2602 30.378 31.1444L27.8582 31.1458C27.8582 32.8828 26.4417 34.2938 24.6889 34.2938C22.9328 34.2938 21.5132 32.8828 21.5132 31.1458L18.9961 31.1431C18.9961 34.2602 21.5424 36.79 24.6889 36.79Z" fill="#B22B36"/>
<path d="M35.5138 44.3157H45.3412L44.6218 40.8612H37.2401L35.7186 33.5987H40.5214L41.074 36.0582H38.7037L39.195 38.4688H44.1268L42.5906 31.0984H32.8271L35.5138 44.3157Z" fill="#B22B36"/>
<path d="M5.33934 38.4688H9.97812L10.4699 36.0582H8.07032L8.62612 33.5987H13.397L11.875 40.8612H4.81874L4.06641 44.3144H13.8065L16.4991 31.0984L6.94639 31.1011L5.33934 38.4688Z" fill="#B22B36"/>
<path d="M28.5853 36.6755V39.1305H26.1386V41.39H23.1562V39.1305H20.7356V36.6755H19.1875L21.4587 44.3185H27.8594L30.1302 36.6755H28.5853Z" fill="#B22B36"/>
<path d="M64.7831 9.88796C66.9395 7.37266 63.5883 4.68457 63.5883 4.68457C63.5883 4.68457 63.969 5.63019 62.2715 7.41938C61.3144 8.43031 61.4373 9.89023 61.4373 9.89023C59.9509 9.15188 59.6694 10.9188 59.6401 12.0921L60.776 13.3103L61.5895 12.8804C62.9772 11.1397 63.6619 9.26662 63.7643 6.52592C64.1651 8.76365 63.9571 10.4857 63.3191 11.9624L65.6428 10.7329C65.3503 10.1551 64.7831 9.88796 64.7831 9.88796Z" fill="#B42368"/>
<path d="M55.7997 27.3237C55.6123 26.6285 55.5826 25.9187 55.6855 25.2284H55.6475C56.1124 22.8337 57.6842 21.333 59.7241 20.8042C63.5968 19.3193 60.9043 17.4535 60.9043 17.4535C65.6011 16.936 62.9839 15.0924 62.9839 15.0924C63.4881 14.7259 63.9067 14.3835 64.2605 14.0597C63.6023 13.9549 62.9199 13.8837 62.2087 13.8492C61.179 15.2194 59.7648 16.4539 58.182 17.8653C54.9359 20.752 51.4594 26.6879 56.4319 30.7307C49.7614 27.9999 51.0179 21.6491 56.3971 17.5401C58.2135 16.155 59.651 14.9903 60.7635 13.8315C59.7278 13.8606 58.7236 13.9585 57.761 14.1408C57.4996 14.8066 57.3451 15.4302 57.3451 15.4302C54.8691 13.3005 53.3325 18.707 53.3325 18.707C50.83 16.0969 48.8363 20.3402 48.802 22.8256C48.749 26.2919 50.3826 30.0336 55.5154 32.0051C55.5008 31.7593 55.4921 31.5103 55.4921 31.2491H59.7392C57.8511 30.3356 56.265 29.0648 55.7997 27.3237Z" fill="#B42368"/>
<path d="M60.0183 26.5328C59.989 26.0072 60.0535 25.5931 60.176 25.2534H58.0515C57.8577 25.6738 57.7763 26.2104 57.8609 26.8902C58.1713 29.2676 60.2669 30.5697 62.1898 31.2741H63.8435C62.2748 30.4042 60.1444 28.8123 60.0183 26.5328Z" fill="#B42368"/>
<path d="M50.9263 32.3761C47.5284 33.0473 47.9503 37.0543 47.9503 37.0543C47.9503 37.0543 48.5646 35.4306 50.1506 34.6143C51.5968 33.8705 53.9205 33.6274 56.2447 34.8048C56.0719 34.4769 55.9339 34.1208 55.8228 33.7376C54.7898 32.8196 53.1595 31.9325 50.9263 32.3761Z" fill="#B42368"/>
<path d="M59.8581 40.2353C58.4449 41.5056 56.5508 42.4417 54.1484 41.9746C52.3074 41.6113 51.1953 40.3859 51.7571 38.5563C52.2548 36.9952 53.9144 36.9399 54.4149 37.3023C53.5812 37.9091 53.6306 39.7886 55.7057 39.8979C57.6368 39.9355 58.3306 37.3322 56.3081 36.1898C53.8792 34.8219 49.6477 35.7698 49.2578 40.009C51.5377 42.6454 54.7664 44.3062 58.5153 44.9203C63.4909 43.3728 65.6798 36.8583 66.5341 35.1135C65.4714 37.032 63.9941 37.7826 61.9396 37.7989C61.2865 38.7087 60.6228 39.5464 59.8581 40.2353Z" fill="#B42368"/>
<path d="M87.6869 34.0571C85.1036 33.3161 83.6081 30.6529 84.3517 28.1136C84.8696 26.3294 86.3527 25.0849 88.0846 24.7488C87.5699 25.284 87.1723 25.9461 86.9497 26.704C86.2097 29.2447 87.7011 31.9033 90.2858 32.6453C91.0546 32.8648 91.8334 32.8897 92.5744 32.7469C91.3659 34.005 89.4983 34.5737 87.6869 34.0571ZM96.8059 39.3077L94.4794 33.9011L97.7602 34.4794L94.7696 29.5499L97.8219 24.4794L94.4794 25.0686L96.8059 19.667L91.971 23.1043L91.6931 17.3118L88.8488 22.624L86.0109 17.3313L85.7302 23.1043L80.8949 19.667L83.2273 25.0686L79.8706 24.4767L82.932 29.5499L79.9492 34.4794L83.2273 33.9011L80.8949 39.3077L85.7302 35.8704L86.0145 41.7368L88.8429 36.4586L91.6931 41.7264L91.971 35.8704L96.8059 39.3077Z" fill="#EC9130"/>
<path d="M177.235 16.1459H176.957V15.4266C177.018 15.4116 177.127 15.3962 177.281 15.3962C177.651 15.3962 177.821 15.5495 177.821 15.779C177.821 16.0389 177.558 16.1459 177.235 16.1459ZM177.928 16.33V16.2997C178.222 16.2076 178.454 16.0085 178.454 15.7024C178.454 15.457 178.346 15.2733 178.192 15.1663C178.02 15.0438 177.806 14.9672 177.327 14.9672C176.911 14.9672 176.587 15.0125 176.356 15.0438V17.5555H176.942V16.5595H177.219C177.543 16.5595 177.697 16.6829 177.745 16.9423C177.821 17.2498 177.867 17.463 177.944 17.5555H178.562C178.516 17.463 178.454 17.3256 178.377 16.9423C178.3 16.6058 178.176 16.4071 177.928 16.33ZM177.358 18.2589C176.232 18.2589 175.383 17.3714 175.383 16.2534C175.383 15.1513 176.232 14.2479 177.327 14.2479H177.343C178.454 14.2479 179.286 15.1513 179.286 16.2684C179.286 17.3714 178.454 18.2743 177.358 18.2589ZM177.358 13.7422H177.343C175.892 13.7422 174.734 14.8456 174.734 16.2534C174.734 17.6625 175.892 18.78 177.343 18.78C178.76 18.78 179.882 17.7129 179.933 16.3491V16.1582C179.882 14.7962 178.76 13.7422 177.358 13.7422Z" fill="#00ABBF"/>
<path d="M26.3781 62.1704L28.4719 55.6782H29.9484L26.9172 64.1313H25.8156L22.7531 55.6782H24.2297L26.3781 62.1704ZM34.5094 64.1313H33.0641V55.6782H34.5094V64.1313ZM32.9469 53.436C32.9469 53.2017 33.0172 53.0037 33.1578 52.8423C33.3036 52.6808 33.5172 52.6001 33.7984 52.6001C34.0797 52.6001 34.2932 52.6808 34.4391 52.8423C34.5849 53.0037 34.6578 53.2017 34.6578 53.436C34.6578 53.6704 34.5849 53.8657 34.4391 54.022C34.2932 54.1782 34.0797 54.2563 33.7984 54.2563C33.5172 54.2563 33.3036 54.1782 33.1578 54.022C33.0172 53.8657 32.9469 53.6704 32.9469 53.436ZM43.3516 61.8892C43.3516 61.4985 43.2031 61.1965 42.9063 60.9829C42.6146 60.7642 42.1016 60.5767 41.3672 60.4204C40.638 60.2642 40.0573 60.0767 39.625 59.8579C39.1979 59.6392 38.8802 59.3787 38.6719 59.0767C38.4688 58.7746 38.3672 58.4152 38.3672 57.9985C38.3672 57.3058 38.6589 56.7199 39.2422 56.2407C39.8307 55.7616 40.5807 55.522 41.4922 55.522C42.4505 55.522 43.2266 55.7694 43.8203 56.2642C44.4193 56.759 44.7188 57.3918 44.7188 58.1626H43.2656C43.2656 57.7668 43.0964 57.4256 42.7578 57.1392C42.4245 56.8527 42.0026 56.7095 41.4922 56.7095C40.9661 56.7095 40.5547 56.8241 40.2578 57.0532C39.9609 57.2824 39.8125 57.5819 39.8125 57.9517C39.8125 58.3006 39.9505 58.5636 40.2266 58.7407C40.5026 58.9178 41 59.0871 41.7188 59.2485C42.4427 59.41 43.0286 59.6027 43.4766 59.8267C43.9245 60.0506 44.2552 60.3215 44.4688 60.6392C44.6875 60.9517 44.7969 61.3345 44.7969 61.7876C44.7969 62.5428 44.4948 63.1496 43.8906 63.6079C43.2865 64.061 42.5026 64.2876 41.5391 64.2876C40.862 64.2876 40.263 64.1678 39.7422 63.9282C39.2214 63.6886 38.8125 63.3553 38.5156 62.9282C38.224 62.4959 38.0781 62.0298 38.0781 61.5298H39.5234C39.5495 62.0142 39.7422 62.3996 40.1016 62.686C40.4661 62.9673 40.9453 63.1079 41.5391 63.1079C42.0859 63.1079 42.5234 62.9985 42.8516 62.7798C43.1849 62.5558 43.3516 62.259 43.3516 61.8892ZM49.85 64.1313H48.4047V55.6782H49.85V64.1313ZM48.2875 53.436C48.2875 53.2017 48.3578 53.0037 48.4984 52.8423C48.6443 52.6808 48.8578 52.6001 49.1391 52.6001C49.4203 52.6001 49.6339 52.6808 49.7797 52.8423C49.9255 53.0037 49.9984 53.2017 49.9984 53.436C49.9984 53.6704 49.9255 53.8657 49.7797 54.022C49.6339 54.1782 49.4203 54.2563 49.1391 54.2563C48.8578 54.2563 48.6443 54.1782 48.4984 54.022C48.3578 53.8657 48.2875 53.6704 48.2875 53.436ZM55.7313 53.6313V55.6782H57.3094V56.7954H55.7313V62.0376C55.7313 62.3761 55.8016 62.6313 55.9422 62.8032C56.0828 62.9699 56.3224 63.0532 56.6609 63.0532C56.8276 63.0532 57.0568 63.022 57.3484 62.9595V64.1313C56.9682 64.2355 56.5984 64.2876 56.2391 64.2876C55.5932 64.2876 55.1063 64.0923 54.7781 63.7017C54.45 63.311 54.2859 62.7563 54.2859 62.0376V56.7954H52.7469V55.6782H54.2859V53.6313H55.7313ZM61.9641 55.6782L62.0031 56.6157C62.6229 55.8866 63.4589 55.522 64.5109 55.522C65.6932 55.522 66.4979 55.9751 66.925 56.8813C67.2063 56.4751 67.5708 56.147 68.0188 55.897C68.4719 55.647 69.0057 55.522 69.6203 55.522C71.4745 55.522 72.4172 56.5037 72.4484 58.4673V64.1313H71.0031V58.5532C71.0031 57.9491 70.8651 57.4985 70.5891 57.2017C70.313 56.8996 69.8495 56.7485 69.1984 56.7485C68.662 56.7485 68.2167 56.91 67.8625 57.2329C67.5083 57.5506 67.3026 57.9803 67.2453 58.522V64.1313H65.7922V58.5923C65.7922 57.3631 65.1906 56.7485 63.9875 56.7485C63.0396 56.7485 62.3911 57.1522 62.0422 57.9595V64.1313H60.5969V55.6782H61.9641ZM79.7438 64.2876C78.5979 64.2876 77.6656 63.9126 76.9469 63.1626C76.2281 62.4074 75.8688 61.3996 75.8688 60.1392V59.8735C75.8688 59.035 76.0276 58.2876 76.3453 57.6313C76.6682 56.9699 77.1161 56.4543 77.6891 56.0845C78.2672 55.7095 78.8922 55.522 79.5641 55.522C80.663 55.522 81.5172 55.884 82.1266 56.6079C82.7359 57.3319 83.0406 58.3683 83.0406 59.7173V60.3188H77.3141C77.3349 61.1522 77.5771 61.8267 78.0406 62.3423C78.5094 62.8527 79.1031 63.1079 79.8219 63.1079C80.3323 63.1079 80.7646 63.0037 81.1188 62.7954C81.4729 62.5871 81.7828 62.311 82.0484 61.9673L82.9313 62.6548C82.2229 63.7433 81.1604 64.2876 79.7438 64.2876ZM79.5641 56.7095C78.9807 56.7095 78.4911 56.923 78.0953 57.3501C77.6995 57.772 77.4547 58.3657 77.3609 59.1313H81.5953V59.022C81.5536 58.2876 81.3557 57.7199 81.0016 57.3188C80.6474 56.9126 80.1682 56.7095 79.5641 56.7095ZM89.1563 58.7642L91.0313 55.6782H92.7188L89.9531 59.8579L92.8047 64.1313H91.1328L89.1797 60.9673L87.2266 64.1313H85.5469L88.3984 59.8579L85.6328 55.6782H87.3047L89.1563 58.7642ZM97.4281 64.1313H95.9828V55.6782H97.4281V64.1313ZM95.8656 53.436C95.8656 53.2017 95.9359 53.0037 96.0766 52.8423C96.2224 52.6808 96.4359 52.6001 96.7172 52.6001C96.9984 52.6001 97.212 52.6808 97.3578 52.8423C97.5037 53.0037 97.5766 53.2017 97.5766 53.436C97.5766 53.6704 97.5037 53.8657 97.3578 54.022C97.212 54.1782 96.9984 54.2563 96.7172 54.2563C96.4359 54.2563 96.2224 54.1782 96.0766 54.022C95.9359 53.8657 95.8656 53.6704 95.8656 53.436ZM104.739 63.1079C105.255 63.1079 105.705 62.9517 106.091 62.6392C106.476 62.3267 106.69 61.936 106.731 61.4673H108.098C108.072 61.9517 107.906 62.4126 107.598 62.8501C107.291 63.2876 106.88 63.6366 106.364 63.897C105.854 64.1574 105.312 64.2876 104.739 64.2876C103.588 64.2876 102.671 63.9048 101.989 63.1392C101.312 62.3683 100.973 61.3162 100.973 59.9829V59.7407C100.973 58.9178 101.124 58.186 101.427 57.5454C101.729 56.9048 102.161 56.4074 102.723 56.0532C103.291 55.6991 103.96 55.522 104.731 55.522C105.679 55.522 106.466 55.8058 107.091 56.3735C107.721 56.9412 108.057 57.6782 108.098 58.5845H106.731C106.69 58.0376 106.481 57.5897 106.106 57.2407C105.736 56.8866 105.278 56.7095 104.731 56.7095C103.997 56.7095 103.427 56.9751 103.02 57.5063C102.619 58.0324 102.419 58.7954 102.419 59.7954V60.0688C102.419 61.0428 102.619 61.7928 103.02 62.3188C103.421 62.8449 103.994 63.1079 104.739 63.1079ZM110.941 59.8267C110.941 58.9985 111.102 58.2537 111.425 57.5923C111.753 56.9308 112.206 56.4204 112.784 56.061C113.368 55.7017 114.032 55.522 114.777 55.522C115.928 55.522 116.857 55.9204 117.566 56.7173C118.279 57.5142 118.636 58.5741 118.636 59.897V59.9985C118.636 60.8215 118.477 61.561 118.159 62.2173C117.847 62.8683 117.396 63.3761 116.808 63.7407C116.224 64.1053 115.553 64.2876 114.792 64.2876C113.646 64.2876 112.717 63.8892 112.003 63.0923C111.295 62.2954 110.941 61.2407 110.941 59.9282V59.8267ZM112.394 59.9985C112.394 60.936 112.61 61.6886 113.042 62.2563C113.48 62.8241 114.063 63.1079 114.792 63.1079C115.527 63.1079 116.11 62.8215 116.542 62.2485C116.974 61.6704 117.191 60.8631 117.191 59.8267C117.191 58.8996 116.969 58.1496 116.527 57.5767C116.089 56.9985 115.506 56.7095 114.777 56.7095C114.063 56.7095 113.488 56.9933 113.05 57.561C112.613 58.1287 112.394 58.9412 112.394 59.9985ZM122.08 63.3735C122.08 63.1235 122.153 62.9152 122.298 62.7485C122.449 62.5819 122.673 62.4985 122.97 62.4985C123.267 62.4985 123.491 62.5819 123.642 62.7485C123.798 62.9152 123.877 63.1235 123.877 63.3735C123.877 63.6131 123.798 63.8136 123.642 63.9751C123.491 64.1366 123.267 64.2173 122.97 64.2173C122.673 64.2173 122.449 64.1366 122.298 63.9751C122.153 63.8136 122.08 63.6131 122.08 63.3735ZM131.258 63.1079C131.773 63.1079 132.224 62.9517 132.609 62.6392C132.995 62.3267 133.208 61.936 133.25 61.4673H134.617C134.591 61.9517 134.424 62.4126 134.117 62.8501C133.81 63.2876 133.398 63.6366 132.883 63.897C132.372 64.1574 131.831 64.2876 131.258 64.2876C130.107 64.2876 129.19 63.9048 128.508 63.1392C127.831 62.3683 127.492 61.3162 127.492 59.9829V59.7407C127.492 58.9178 127.643 58.186 127.945 57.5454C128.247 56.9048 128.68 56.4074 129.242 56.0532C129.81 55.6991 130.479 55.522 131.25 55.522C132.198 55.522 132.984 55.8058 133.609 56.3735C134.24 56.9412 134.576 57.6782 134.617 58.5845H133.25C133.208 58.0376 133 57.5897 132.625 57.2407C132.255 56.8866 131.797 56.7095 131.25 56.7095C130.516 56.7095 129.945 56.9751 129.539 57.5063C129.138 58.0324 128.938 58.7954 128.938 59.7954V60.0688C128.938 61.0428 129.138 61.7928 129.539 62.3188C129.94 62.8449 130.513 63.1079 131.258 63.1079ZM137.459 59.8267C137.459 58.9985 137.621 58.2537 137.944 57.5923C138.272 56.9308 138.725 56.4204 139.303 56.061C139.886 55.7017 140.551 55.522 141.295 55.522C142.446 55.522 143.376 55.9204 144.084 56.7173C144.798 57.5142 145.155 58.5741 145.155 59.897V59.9985C145.155 60.8215 144.996 61.561 144.678 62.2173C144.366 62.8683 143.915 63.3761 143.327 63.7407C142.743 64.1053 142.071 64.2876 141.311 64.2876C140.165 64.2876 139.235 63.8892 138.522 63.0923C137.814 62.2954 137.459 61.2407 137.459 59.9282V59.8267ZM138.913 59.9985C138.913 60.936 139.129 61.6886 139.561 62.2563C139.998 62.8241 140.582 63.1079 141.311 63.1079C142.045 63.1079 142.629 62.8215 143.061 62.2485C143.493 61.6704 143.709 60.8631 143.709 59.8267C143.709 58.8996 143.488 58.1496 143.045 57.5767C142.608 56.9985 142.024 56.7095 141.295 56.7095C140.582 56.7095 140.006 56.9933 139.569 57.561C139.131 58.1287 138.913 58.9412 138.913 59.9985ZM149.927 55.6782L149.966 56.6157C150.585 55.8866 151.421 55.522 152.473 55.522C153.656 55.522 154.46 55.9751 154.888 56.8813C155.169 56.4751 155.533 56.147 155.981 55.897C156.434 55.647 156.968 55.522 157.583 55.522C159.437 55.522 160.38 56.5037 160.411 58.4673V64.1313H158.966V58.5532C158.966 57.9491 158.828 57.4985 158.552 57.2017C158.276 56.8996 157.812 56.7485 157.161 56.7485C156.624 56.7485 156.179 56.91 155.825 57.2329C155.471 57.5506 155.265 57.9803 155.208 58.522V64.1313H153.755V58.5923C153.755 57.3631 153.153 56.7485 151.95 56.7485C151.002 56.7485 150.354 57.1522 150.005 57.9595V64.1313H148.559V55.6782H149.927Z" fill="white"/>
</svg>
