<svg width="642" height="107" viewBox="0 0 642 107" fill="none" xmlns="http://www.w3.org/2000/svg">
<g opacity="0.1">
<path d="M53.4866 40.1149L40.1151 53.4865H49.0295L53.4866 49.0289L57.944 53.4865H66.8584L53.4866 40.1149ZM4.45738 26.7432L31.2006 0H22.2862L0.000244141 22.2857V31.2008L22.2862 53.4865H31.2006L4.45738 26.7432ZM0.000244141 40.1149V49.0289L4.45738 53.4865H13.3719L0.000244141 40.1149ZM93.6017 53.4865H102.516L106.973 49.0289V40.1149L93.6017 53.4865ZM80.2298 22.2857L84.6871 26.7432L80.2298 31.2008L75.7726 26.7432L80.2298 22.2857ZM93.6017 26.7432L71.3156 4.45757L57.944 17.8292L62.4011 22.2857L71.3156 13.3716L75.7726 17.8292L66.8584 26.7432L75.7726 35.6573L71.3156 40.1149L62.4011 31.2008L57.944 35.6573L71.3156 49.0289L93.6017 26.7432ZM26.7434 31.2008L22.2862 26.7432L26.7434 22.2857L31.2006 26.7432L26.7434 31.2008ZM49.0295 35.6573L44.5723 31.2008L35.658 40.1149L31.2006 35.6573L40.1151 26.7432L31.2006 17.8292L35.658 13.3716L44.5723 22.2857L49.0295 17.8292L35.658 4.45757L13.3719 26.7432L35.658 49.0289L49.0295 35.6573ZM13.3719 0H4.45738L0.000244141 4.45757V13.3716L13.3719 0ZM102.516 0H93.6017L106.973 13.3716V4.45757L102.516 0ZM84.6871 0H75.7726L102.516 26.7432L75.7726 53.4865H84.6871L106.973 31.2008V22.2857L84.6871 0ZM53.4866 13.3716L66.8584 0H57.944L53.4866 4.45757L49.0295 0H40.1151L53.4866 13.3716ZM49.0295 26.7432L53.4866 31.2008L57.944 26.7432L53.4866 22.2857L49.0295 26.7432Z" fill="#696969"/>
<path d="M160.434 40.1149L147.062 53.4865H155.976L160.434 49.0289L164.891 53.4865H173.805L160.434 40.1149ZM111.405 26.7432L138.148 0H129.233L106.947 22.2857V31.2008L129.233 53.4865H138.148L111.405 26.7432ZM106.947 40.1149V49.0289L111.405 53.4865H120.319L106.947 40.1149ZM200.548 53.4865H209.462L213.92 49.0289V40.1149L200.548 53.4865ZM187.177 22.2857L191.634 26.7432L187.177 31.2008L182.719 26.7432L187.177 22.2857ZM200.548 26.7432L178.263 4.45757L164.891 17.8292L169.348 22.2857L178.263 13.3716L182.719 17.8292L173.805 26.7432L182.719 35.6573L178.263 40.1149L169.348 31.2008L164.891 35.6573L178.263 49.0289L200.548 26.7432ZM133.69 31.2008L129.233 26.7432L133.69 22.2857L138.148 26.7432L133.69 31.2008ZM155.976 35.6573L151.519 31.2008L142.604 40.1149L138.148 35.6573L147.062 26.7432L138.148 17.8292L142.604 13.3716L151.519 22.2857L155.976 17.8292L142.604 4.45757L120.319 26.7432L142.604 49.0289L155.976 35.6573ZM120.319 0H111.405L106.947 4.45757V13.3716L120.319 0ZM209.462 0H200.548L213.92 13.3716V4.45757L209.462 0ZM191.634 0H182.719L209.462 26.7432L182.719 53.4865H191.634L213.92 31.2008V22.2857L191.634 0ZM160.434 13.3716L173.805 0H164.891L160.434 4.45757L155.976 0H147.062L160.434 13.3716ZM155.976 26.7432L160.434 31.2008L164.891 26.7432L160.434 22.2857L155.976 26.7432Z" fill="#696969"/>
<path d="M267.461 40.1149L254.089 53.4865H263.003L267.461 49.0289L271.918 53.4865H280.832L267.461 40.1149ZM218.432 26.7432L245.175 0H236.26L213.974 22.2857V31.2008L236.26 53.4865H245.175L218.432 26.7432ZM213.974 40.1149V49.0289L218.432 53.4865H227.346L213.974 40.1149ZM307.576 53.4865H316.49L320.947 49.0289V40.1149L307.576 53.4865ZM294.204 22.2857L298.662 26.7432L294.204 31.2008L289.747 26.7432L294.204 22.2857ZM307.576 26.7432L285.29 4.45757L271.918 17.8292L276.375 22.2857L285.29 13.3716L289.747 17.8292L280.832 26.7432L289.747 35.6573L285.29 40.1149L276.375 31.2008L271.918 35.6573L285.29 49.0289L307.576 26.7432ZM240.718 31.2008L236.26 26.7432L240.718 22.2857L245.175 26.7432L240.718 31.2008ZM263.003 35.6573L258.547 31.2008L249.632 40.1149L245.175 35.6573L254.089 26.7432L245.175 17.8292L249.632 13.3716L258.547 22.2857L263.003 17.8292L249.632 4.45757L227.346 26.7432L249.632 49.0289L263.003 35.6573ZM227.346 0H218.432L213.974 4.45757V13.3716L227.346 0ZM316.49 0H307.576L320.947 13.3716V4.45757L316.49 0ZM298.662 0H289.747L316.49 26.7432L289.747 53.4865H298.662L320.947 31.2008V22.2857L298.662 0ZM267.461 13.3716L280.832 0H271.918L267.461 4.45757L263.003 0H254.089L267.461 13.3716ZM263.003 26.7432L267.461 31.2008L271.918 26.7432L267.461 22.2857L263.003 26.7432Z" fill="#696969"/>
<path d="M53.4864 93.6285L40.1149 107H49.0292L53.4864 102.543L57.9437 107H66.8581L53.4864 93.6285ZM4.45714 80.2569L31.2004 53.5137H22.286L0 75.7994V84.7145L22.286 107H31.2004L4.45714 80.2569ZM0 93.6285V102.543L4.45714 107H13.3716L0 93.6285ZM93.6015 107H102.516L106.973 102.543V93.6285L93.6015 107ZM80.2295 75.7994L84.6869 80.2569L80.2295 84.7145L75.7724 80.2569L80.2295 75.7994ZM93.6015 80.2569L71.3153 57.9712L57.9437 71.3428L62.4009 75.7994L71.3153 66.8853L75.7724 71.3428L66.8581 80.2569L75.7724 89.171L71.3153 93.6285L62.4009 84.7145L57.9437 89.171L71.3153 102.543L93.6015 80.2569ZM26.7431 84.7145L22.286 80.2569L26.7431 75.7994L31.2004 80.2569L26.7431 84.7145ZM49.0292 89.171L44.5721 84.7145L35.6577 93.6285L31.2004 89.171L40.1149 80.2569L31.2004 71.3428L35.6577 66.8853L44.5721 75.7994L49.0292 71.3428L35.6577 57.9712L13.3716 80.2569L35.6577 102.543L49.0292 89.171ZM13.3716 53.5137H4.45714L0 57.9712V66.8853L13.3716 53.5137ZM102.516 53.5137H93.6015L106.973 66.8853V57.9712L102.516 53.5137ZM84.6869 53.5137H75.7724L102.516 80.2569L75.7724 107H84.6869L106.973 84.7145V75.7994L84.6869 53.5137ZM53.4864 66.8853L66.8581 53.5137H57.9437L53.4864 57.9712L49.0292 53.5137H40.1149L53.4864 66.8853ZM49.0292 80.2569L53.4864 84.7145L57.9437 80.2569L53.4864 75.7994L49.0292 80.2569Z" fill="#696969"/>
<path d="M160.434 93.6285L147.062 107H155.976L160.434 102.543L164.891 107H173.805L160.434 93.6285ZM111.405 80.2569L138.148 53.5137H129.233L106.947 75.7994V84.7145L129.233 107H138.148L111.405 80.2569ZM106.947 93.6285V102.543L111.405 107H120.319L106.947 93.6285ZM200.548 107H209.462L213.92 102.543V93.6285L200.548 107ZM187.177 75.7994L191.634 80.2569L187.177 84.7145L182.719 80.2569L187.177 75.7994ZM200.548 80.2569L178.263 57.9712L164.891 71.3428L169.348 75.7994L178.263 66.8853L182.719 71.3428L173.805 80.2569L182.719 89.171L178.263 93.6285L169.348 84.7145L164.891 89.171L178.263 102.543L200.548 80.2569ZM133.69 84.7145L129.233 80.2569L133.69 75.7994L138.148 80.2569L133.69 84.7145ZM155.976 89.171L151.519 84.7145L142.604 93.6285L138.148 89.171L147.062 80.2569L138.148 71.3428L142.604 66.8853L151.519 75.7994L155.976 71.3428L142.604 57.9712L120.319 80.2569L142.604 102.543L155.976 89.171ZM120.319 53.5137H111.405L106.947 57.9712V66.8853L120.319 53.5137ZM209.462 53.5137H200.548L213.92 66.8853V57.9712L209.462 53.5137ZM191.634 53.5137H182.719L209.462 80.2569L182.719 107H191.634L213.92 84.7145V75.7994L191.634 53.5137ZM160.434 66.8853L173.805 53.5137H164.891L160.434 57.9712L155.976 53.5137H147.062L160.434 66.8853ZM155.976 80.2569L160.434 84.7145L164.891 80.2569L160.434 75.7994L155.976 80.2569Z" fill="#696969"/>
<path d="M267.461 93.6285L254.089 107H263.003L267.461 102.543L271.918 107H280.832L267.461 93.6285ZM218.432 80.2569L245.175 53.5137H236.26L213.974 75.7994V84.7145L236.26 107H245.175L218.432 80.2569ZM213.974 93.6285V102.543L218.432 107H227.346L213.974 93.6285ZM307.576 107H316.49L320.947 102.543V93.6285L307.576 107ZM294.204 75.7994L298.662 80.2569L294.204 84.7145L289.747 80.2569L294.204 75.7994ZM307.576 80.2569L285.29 57.9712L271.918 71.3428L276.375 75.7994L285.29 66.8853L289.747 71.3428L280.832 80.2569L289.747 89.171L285.29 93.6285L276.375 84.7145L271.918 89.171L285.29 102.543L307.576 80.2569ZM240.718 84.7145L236.26 80.2569L240.718 75.7994L245.175 80.2569L240.718 84.7145ZM263.003 89.171L258.547 84.7145L249.632 93.6285L245.175 89.171L254.089 80.2569L245.175 71.3428L249.632 66.8853L258.547 75.7994L263.003 71.3428L249.632 57.9712L227.346 80.2569L249.632 102.543L263.003 89.171ZM227.346 53.5137H218.432L213.974 57.9712V66.8853L227.346 53.5137ZM316.49 53.5137H307.576L320.947 66.8853V57.9712L316.49 53.5137ZM298.662 53.5137H289.747L316.49 80.2569L289.747 107H298.662L320.947 84.7145V75.7994L298.662 53.5137ZM267.461 66.8853L280.832 53.5137H271.918L267.461 57.9712L263.003 53.5137H254.089L267.461 66.8853ZM263.003 80.2569L267.461 84.7145L271.918 80.2569L267.461 75.7994L263.003 80.2569Z" fill="#696969"/>
</g>
<g opacity="0.1">
<path d="M374.431 40.1149L361.06 53.4865H369.974L374.431 49.0289L378.889 53.4865H387.803L374.431 40.1149ZM325.402 26.7432L352.145 0H343.231L320.945 22.2857V31.2008L343.231 53.4865H352.145L325.402 26.7432ZM320.945 40.1149V49.0289L325.402 53.4865H334.316L320.945 40.1149ZM414.546 53.4865H423.461L427.918 49.0289V40.1149L414.546 53.4865ZM401.174 22.2857L405.632 26.7432L401.174 31.2008L396.717 26.7432L401.174 22.2857ZM414.546 26.7432L392.26 4.45757L378.889 17.8292L383.346 22.2857L392.26 13.3716L396.717 17.8292L387.803 26.7432L396.717 35.6573L392.26 40.1149L383.346 31.2008L378.889 35.6573L392.26 49.0289L414.546 26.7432ZM347.688 31.2008L343.231 26.7432L347.688 22.2857L352.145 26.7432L347.688 31.2008ZM369.974 35.6573L365.517 31.2008L356.603 40.1149L352.145 35.6573L361.06 26.7432L352.145 17.8292L356.603 13.3716L365.517 22.2857L369.974 17.8292L356.603 4.45757L334.316 26.7432L356.603 49.0289L369.974 35.6573ZM334.316 0H325.402L320.945 4.45757V13.3716L334.316 0ZM423.461 0H414.546L427.918 13.3716V4.45757L423.461 0ZM405.632 0H396.717L423.461 26.7432L396.717 53.4865H405.632L427.918 31.2008V22.2857L405.632 0ZM374.431 13.3716L387.803 0H378.889L374.431 4.45757L369.974 0H361.06L374.431 13.3716ZM369.974 26.7432L374.431 31.2008L378.889 26.7432L374.431 22.2857L369.974 26.7432Z" fill="#696969"/>
<path d="M481.378 40.1149L468.007 53.4865H476.921L481.378 49.0289L485.836 53.4865H494.75L481.378 40.1149ZM432.349 26.7432L459.093 0H450.178L427.892 22.2857V31.2008L450.178 53.4865H459.093L432.349 26.7432ZM427.892 40.1149V49.0289L432.349 53.4865H441.263L427.892 40.1149ZM521.493 53.4865H530.407L534.865 49.0289V40.1149L521.493 53.4865ZM508.122 22.2857L512.579 26.7432L508.122 31.2008L503.664 26.7432L508.122 22.2857ZM521.493 26.7432L499.208 4.45757L485.836 17.8292L490.292 22.2857L499.208 13.3716L503.664 17.8292L494.75 26.7432L503.664 35.6573L499.208 40.1149L490.292 31.2008L485.836 35.6573L499.208 49.0289L521.493 26.7432ZM454.635 31.2008L450.178 26.7432L454.635 22.2857L459.093 26.7432L454.635 31.2008ZM476.921 35.6573L472.464 31.2008L463.549 40.1149L459.093 35.6573L468.007 26.7432L459.093 17.8292L463.549 13.3716L472.464 22.2857L476.921 17.8292L463.549 4.45757L441.263 26.7432L463.549 49.0289L476.921 35.6573ZM441.263 0H432.349L427.892 4.45757V13.3716L441.263 0ZM530.407 0H521.493L534.865 13.3716V4.45757L530.407 0ZM512.579 0H503.664L530.407 26.7432L503.664 53.4865H512.579L534.865 31.2008V22.2857L512.579 0ZM481.378 13.3716L494.75 0H485.836L481.378 4.45757L476.921 0H468.007L481.378 13.3716ZM476.921 26.7432L481.378 31.2008L485.836 26.7432L481.378 22.2857L476.921 26.7432Z" fill="#696969"/>
<path d="M588.406 40.1149L575.034 53.4865H583.948L588.406 49.0289L592.863 53.4865H601.778L588.406 40.1149ZM539.377 26.7432L566.12 0H557.205L534.919 22.2857V31.2008L557.205 53.4865H566.12L539.377 26.7432ZM534.919 40.1149V49.0289L539.377 53.4865H548.291L534.919 40.1149ZM628.521 53.4865H637.435L641.892 49.0289V40.1149L628.521 53.4865ZM615.149 22.2857L619.607 26.7432L615.149 31.2008L610.692 26.7432L615.149 22.2857ZM628.521 26.7432L606.235 4.45757L592.863 17.8292L597.32 22.2857L606.235 13.3716L610.692 17.8292L601.778 26.7432L610.692 35.6573L606.235 40.1149L597.32 31.2008L592.863 35.6573L606.235 49.0289L628.521 26.7432ZM561.663 31.2008L557.205 26.7432L561.663 22.2857L566.12 26.7432L561.663 31.2008ZM583.948 35.6573L579.492 31.2008L570.577 40.1149L566.12 35.6573L575.034 26.7432L566.12 17.8292L570.577 13.3716L579.492 22.2857L583.948 17.8292L570.577 4.45757L548.291 26.7432L570.577 49.0289L583.948 35.6573ZM548.291 0H539.377L534.919 4.45757V13.3716L548.291 0ZM637.435 0H628.521L641.892 13.3716V4.45757L637.435 0ZM619.607 0H610.692L637.435 26.7432L610.692 53.4865H619.607L641.892 31.2008V22.2857L619.607 0ZM588.406 13.3716L601.778 0H592.863L588.406 4.45757L583.948 0H575.034L588.406 13.3716ZM583.948 26.7432L588.406 31.2008L592.863 26.7432L588.406 22.2857L583.948 26.7432Z" fill="#696969"/>
<path d="M374.431 93.6285L361.06 107H369.974L374.431 102.543L378.889 107H387.803L374.431 93.6285ZM325.402 80.2569L352.145 53.5137H343.231L320.945 75.7994V84.7145L343.231 107H352.145L325.402 80.2569ZM320.945 93.6285V102.543L325.402 107H334.316L320.945 93.6285ZM414.546 107H423.461L427.918 102.543V93.6285L414.546 107ZM401.174 75.7994L405.632 80.2569L401.174 84.7145L396.717 80.2569L401.174 75.7994ZM414.546 80.2569L392.26 57.9712L378.889 71.3428L383.346 75.7994L392.26 66.8853L396.717 71.3428L387.803 80.2569L396.717 89.171L392.26 93.6285L383.346 84.7145L378.889 89.171L392.26 102.543L414.546 80.2569ZM347.688 84.7145L343.231 80.2569L347.688 75.7994L352.145 80.2569L347.688 84.7145ZM369.974 89.171L365.517 84.7145L356.603 93.6285L352.145 89.171L361.06 80.2569L352.145 71.3428L356.603 66.8853L365.517 75.7994L369.974 71.3428L356.603 57.9712L334.316 80.2569L356.603 102.543L369.974 89.171ZM334.316 53.5137H325.402L320.945 57.9712V66.8853L334.316 53.5137ZM423.461 53.5137H414.546L427.918 66.8853V57.9712L423.461 53.5137ZM405.632 53.5137H396.717L423.461 80.2569L396.717 107H405.632L427.918 84.7145V75.7994L405.632 53.5137ZM374.431 66.8853L387.803 53.5137H378.889L374.431 57.9712L369.974 53.5137H361.06L374.431 66.8853ZM369.974 80.2569L374.431 84.7145L378.889 80.2569L374.431 75.7994L369.974 80.2569Z" fill="#696969"/>
<path d="M481.378 93.6285L468.007 107H476.921L481.378 102.543L485.836 107H494.75L481.378 93.6285ZM432.349 80.2569L459.093 53.5137H450.178L427.892 75.7994V84.7145L450.178 107H459.093L432.349 80.2569ZM427.892 93.6285V102.543L432.349 107H441.263L427.892 93.6285ZM521.493 107H530.407L534.865 102.543V93.6285L521.493 107ZM508.122 75.7994L512.579 80.2569L508.122 84.7145L503.664 80.2569L508.122 75.7994ZM521.493 80.2569L499.208 57.9712L485.836 71.3428L490.292 75.7994L499.208 66.8853L503.664 71.3428L494.75 80.2569L503.664 89.171L499.208 93.6285L490.292 84.7145L485.836 89.171L499.208 102.543L521.493 80.2569ZM454.635 84.7145L450.178 80.2569L454.635 75.7994L459.093 80.2569L454.635 84.7145ZM476.921 89.171L472.464 84.7145L463.549 93.6285L459.093 89.171L468.007 80.2569L459.093 71.3428L463.549 66.8853L472.464 75.7994L476.921 71.3428L463.549 57.9712L441.263 80.2569L463.549 102.543L476.921 89.171ZM441.263 53.5137H432.349L427.892 57.9712V66.8853L441.263 53.5137ZM530.407 53.5137H521.493L534.865 66.8853V57.9712L530.407 53.5137ZM512.579 53.5137H503.664L530.407 80.2569L503.664 107H512.579L534.865 84.7145V75.7994L512.579 53.5137ZM481.378 66.8853L494.75 53.5137H485.836L481.378 57.9712L476.921 53.5137H468.007L481.378 66.8853ZM476.921 80.2569L481.378 84.7145L485.836 80.2569L481.378 75.7994L476.921 80.2569Z" fill="#696969"/>
<path d="M588.406 93.6285L575.034 107H583.948L588.406 102.543L592.863 107H601.778L588.406 93.6285ZM539.377 80.2569L566.12 53.5137H557.205L534.919 75.7994V84.7145L557.205 107H566.12L539.377 80.2569ZM534.919 93.6285V102.543L539.377 107H548.291L534.919 93.6285ZM628.521 107H637.435L641.892 102.543V93.6285L628.521 107ZM615.149 75.7994L619.607 80.2569L615.149 84.7145L610.692 80.2569L615.149 75.7994ZM628.521 80.2569L606.235 57.9712L592.863 71.3428L597.32 75.7994L606.235 66.8853L610.692 71.3428L601.778 80.2569L610.692 89.171L606.235 93.6285L597.32 84.7145L592.863 89.171L606.235 102.543L628.521 80.2569ZM561.663 84.7145L557.205 80.2569L561.663 75.7994L566.12 80.2569L561.663 84.7145ZM583.948 89.171L579.492 84.7145L570.577 93.6285L566.12 89.171L575.034 80.2569L566.12 71.3428L570.577 66.8853L579.492 75.7994L583.948 71.3428L570.577 57.9712L548.291 80.2569L570.577 102.543L583.948 89.171ZM548.291 53.5137H539.377L534.919 57.9712V66.8853L548.291 53.5137ZM637.435 53.5137H628.521L641.892 66.8853V57.9712L637.435 53.5137ZM619.607 53.5137H610.692L637.435 80.2569L610.692 107H619.607L641.892 84.7145V75.7994L619.607 53.5137ZM588.406 66.8853L601.778 53.5137H592.863L588.406 57.9712L583.948 53.5137H575.034L588.406 66.8853ZM583.948 80.2569L588.406 84.7145L592.863 80.2569L588.406 75.7994L583.948 80.2569Z" fill="#696969"/>
</g>
</svg>
